<?xml version="1.0" standalone="no"?>
<!DOCTYPE svg PUBLIC "-//W3C//DTD SVG 1.1//EN" "http://www.w3.org/Graphics/SVG/1.1/DTD/svg11.dtd" >
<svg>
<metadata>
Created by FontForge 20120731 at Tue Feb  4 01:33:31 2020
 By www
BoisterBlack (C) Copyright PJL MMII
</metadata>
<defs>
<font id="BoisterBlack" horiz-adv-x="133" >
  <font-face 
    font-family="BoisterBlack"
    font-weight="400"
    font-stretch="normal"
    units-per-em="1000"
    panose-1="2 2 0 0 0 0 0 0 0 0"
    ascent="800"
    descent="-200"
    x-height="589"
    cap-height="938.5"
    bbox="-27 -265 1232.79 978"
    underline-thickness="50"
    underline-position="-75"
    unicode-range="U+0020-201D"
  />
<missing-glyph horiz-adv-x="621" 
d="M40 0v715h541v-715h-541zM80 40h461v635h-461v-635z" />
    <glyph glyph-name=".notdef" horiz-adv-x="621" 
d="M40 0v715h541v-715h-541zM80 40h461v635h-461v-635z" />
    <glyph glyph-name="space" unicode=" " horiz-adv-x="350" 
 />
    <glyph glyph-name="exclam" unicode="!" horiz-adv-x="193" 
d="M32 305q3 67 6.5 135t-4.5 134q-11 82 -0.5 141t30.5 96.5t41 55.5t31 20q30 6 39.5 -26t6.5 -83t-14.5 -112t-22.5 -113q-10 -43 -3.5 -87.5t10.5 -85.5q-2 -39 -11 -67t-21 -47t-23.5 -29t-17.5 -12q-4 -1 -13 3.5t-18 14.5t-14.5 25.5t-1.5 36.5zM54 3
q-23 -2 -33.5 25t-10.5 61.5t10 65.5t28 37q59 21 82 -4.5t19 -66t-30 -78t-65 -40.5z" />
    <glyph glyph-name="quotedbl" unicode="&#x22;" horiz-adv-x="263" 
d="M48 750q-17 1 -26.5 28.5t-11 61t6 63.5t25.5 36q40 14 58 6t21.5 -29t-4.5 -49t-20.5 -54t-26.5 -44t-22 -19zM178 752q-17 1 -26.5 28.5t-11 61t6 63.5t25.5 36q40 14 58 6t21.5 -29t-4.5 -49t-20.5 -54t-26.5 -44t-22 -19z" />
    <glyph glyph-name="quotesingle" unicode="'" 
d="M48 750q-17 1 -26.5 28.5t-11 61t6 63.5t25.5 36q40 14 58 6t21.5 -29t-4.5 -49t-20.5 -54t-26.5 -44t-22 -19z" />
    <glyph glyph-name="comma" unicode="," horiz-adv-x="156" 
d="M48 -61q0 16 3.5 31.5t6.5 31.5q-1 0 -2 -0.5t-2 -0.5q1 0 1 -0.5t1 -0.5h-6l1 1q-21 4 -31 31.5t-10 60.5t8.5 61.5t25.5 34.5q38 14 60.5 7t32.5 -25.5t8.5 -45.5t-12.5 -52q-11 -35 -18 -72t-32 -66q-12 -8 -21 -5.5t-14 9.5z" />
    <glyph glyph-name="hyphen" unicode="-" horiz-adv-x="462" 
d="M168 405q-10 -1 -26.5 -4t-18.5 -5q-11 -7 -25 -22.5t-28 -29t-27 -20.5t-22 2q-20 20 -3.5 49.5t48 58t67 51t53.5 28.5q2 1 25.5 0.5t57 -3.5t70 -9.5t65 -19t41.5 -31.5t0 -47q-10 -20 -29 -42.5t-40.5 -41t-43.5 -29t-37 -6.5q-13 56 -42 89t-82 32h-3z" />
    <glyph glyph-name="period" unicode="." horiz-adv-x="160" 
d="M54 0q-23 -2 -33.5 25t-10.5 61.5t10 65.5t28 37q59 21 82 -4.5t19 -66t-30 -78t-65 -40.5z" />
    <glyph glyph-name="zero" unicode="0" horiz-adv-x="503" 
d="M298 133q10 1 21 2t22 5q16 6 28 18q37 36 46 84t-1.5 98.5t-36 97t-57.5 78.5q-38 39 -83 51t-82 -1.5t-59 -52t-14 -101.5q4 -39 18 -77t36 -72.5t51.5 -63.5t64.5 -48q3 -1 10 -4t15 -6t14 -5.5t7 -2.5zM249 29q-33 -1 -54.5 10.5t-49.5 30.5q-47 32 -77.5 78
t-45 99.5t-12 110.5t20.5 110q18 48 44.5 93.5t64 76t87 40.5t111.5 -11q2 -1 2 -2t1 -3q1 -1 3 0t4 0q1 -1 -0.5 -2.5t0.5 -2.5q37 -12 62.5 -47.5t42 -80.5t26 -92.5t13.5 -83.5q2 -15 -4.5 -45t-17 -62.5t-22.5 -61t-21 -39.5q-20 -25 -38 -45.5t-38 -35.5t-44.5 -24
t-57.5 -11z" />
    <glyph glyph-name="one" unicode="1" horiz-adv-x="281" 
d="M61 4q-6 0 -8.5 6t-2 13.5t3.5 14.5t8 9q17 6 26 28.5t13.5 54t5 67.5t-0.5 69t-2.5 59t-1.5 36q0 18 3 44.5t4 54t-3 52t-17 37.5q-6 6 -15 5.5t-18.5 -3t-19 -4t-16.5 2.5q-15 9 -6.5 20.5t25.5 23t34.5 20t21.5 11.5q24 18 47.5 35.5t43 23.5t34 -5.5t20.5 -50.5
q8 -53 9 -107t-1 -108t-5 -108.5t-3 -108.5q0 -14 -1 -32t8 -32q8 -12 17.5 -22t4.5 -24q-2 -5 -9 -7t-16 -2h-18t-15 -1q-16 -3 -31 -9t-27 -16q-22 -17 -43 -33t-49 -14z" />
    <glyph glyph-name="two" unicode="2" horiz-adv-x="515" 
d="M323 18q-17 0 -31.5 15t-30.5 20q-48 18 -97 13.5t-98 -23.5q-21 -8 -27.5 0t-2.5 33q1 6 10.5 17t21.5 22t23.5 21t16.5 15q10 10 19.5 23t17.5 24q12 16 41.5 49.5t59 72.5t49 78t11.5 66q-17 56 -49 78.5t-69.5 20t-74.5 -27t-63 -64.5q-4 -6 -14.5 -5.5t-15.5 5.5
q-10 11 -9.5 28.5t5.5 37t13 37.5t14 30q19 39 61.5 68.5t82.5 29.5q44 1 84.5 -17.5t72 -48.5t52.5 -68.5t26 -78t-9 -76.5t-52 -65q-19 -14 -44.5 -38.5t-48 -48.5t-37 -41.5t-10.5 -19.5q23 -8 48.5 -8.5t43.5 -14.5q4 -3 18 -7.5t30 -8t30.5 -5.5t19.5 0q14 5 24 19
t18.5 27t17.5 20.5t20 0.5q15 -10 13.5 -24.5t-10.5 -30t-21.5 -31t-20.5 -28.5q-5 -9 -14 -16t-16 -16q-20 -28 -42.5 -43.5t-56.5 -15.5z" />
    <glyph glyph-name="three" unicode="3" horiz-adv-x="497" 
d="M219 36q-7 1 -30 2.5t-34 5.5q-75 32 -112.5 85t-30.5 139q2 6 5 6q17 1 40 -2t40 -1q27 4 32.5 -3.5t-1.5 -30.5q-12 -43 -1 -72.5t36 -46.5t59.5 -22t67.5 2q29 6 52 24.5t35.5 43.5t12 54t-17.5 56q-14 22 -27.5 33t-29.5 16t-35.5 6.5t-45.5 4.5q-9 2 -11.5 11
t0.5 17q6 11 24 19.5t25 14.5q22 16 32 27q10 12 15.5 29t3.5 32q-6 36 -31 60t-56 31.5t-63 -5t-52 -49.5q-4 -7 -15.5 -4.5t-11.5 8.5q-2 45 18 79.5t52.5 55.5t73 27t79.5 -7q62 -20 84 -66t12 -108q-1 -8 -9 -16t-15 -15.5t-11 -14t2 -11.5q33 -30 57.5 -59.5t37 -62
t11.5 -68.5t-19 -78q-3 -7 -11 -19t-12 -17q-28 -37 -70 -63.5t-87 -39.5q-17 -5 -34 -8t-34 0z" />
    <glyph glyph-name="four" unicode="4" horiz-adv-x="525" 
d="M284 12q-4 -2 -9 1.5t-7 7.5q-5 12 14 28q7 7 19.5 22t13.5 26q4 27 9.5 54.5t-2.5 52.5q-2 7 -21.5 10t-48.5 4t-62 0t-62.5 -2.5t-50 -3t-23.5 -1.5q-10 0 -20.5 -1t-18.5 4q-5 4 -4 11t4 11q17 27 35.5 64.5t35.5 78t30.5 81t18.5 73.5q5 32 9 46t13.5 22.5t27.5 17
t51 30.5q6 4 16 13t19.5 16.5t17 10.5t7.5 -5q2 -72 -12 -125t-35.5 -90.5t-46 -61.5t-43 -38.5t-27 -21.5t1.5 -10q41 -14 86.5 -12t89.5 5q10 1 13 21.5t2.5 47t-2 52t0.5 37.5q3 32 -0.5 64.5t6.5 61.5q2 3 20 15t40 24t40 21t18 7q12 -70 5.5 -141.5t-7.5 -142.5
q0 -18 -7 -37t6 -32q11 -10 29.5 -2t33.5 4q8 -3 6 -21t-8 -38.5t-13 -38t-10 -18.5q-11 -4 -22 -2t-19 -2q-4 -2 -5.5 -15t-0.5 -29t2.5 -30.5t3.5 -20.5q2 -5 9 -7.5t8 -7.5q1 -8 2 -17.5t-6 -12.5q-10 -4 -21.5 -4h-22.5t-21.5 -1t-17.5 -9q-6 -6 -18.5 -13.5t-26 -14
t-25.5 -11t-18 -5.5z" />
    <glyph glyph-name="five" unicode="5" horiz-adv-x="422" 
d="M150 34q-28 9 -56.5 25.5t-50.5 44.5q-2 3 -13 29t-16.5 53.5t1.5 46t42 7.5q2 -1 13.5 -0.5t24.5 0.5t23.5 -0.5t10.5 -3.5q3 -17 0.5 -32.5t-4 -29.5t1.5 -26.5t18 -24.5q38 -29 69.5 -28.5t55.5 20t39.5 53.5t19.5 72.5t-3.5 77t-29.5 65.5q-1 1 -2 -1t-2 0
q-7 12 -23 18.5t-34.5 8.5t-36.5 -0.5t-28 -6.5q-5 -2 -15 -8.5t-20.5 -12.5t-19.5 -9t-11 2q-3 5 -2.5 20t1.5 31.5t2 30t1 16.5q-4 51 -6 102.5t11 100.5q3 11 14.5 9.5t27 -8t31 -14t25.5 -9.5q17 -2 34 -2.5t34 2.5q12 3 25.5 12t26 17t22.5 10.5t15 -8.5
q11 -26 -3.5 -47.5t-40.5 -38t-57.5 -27.5t-54.5 -16q-13 -2 -27.5 2t-24.5 -4q-8 -7 -9.5 -19t7.5 -16q7 -4 18 -2t23.5 6.5t25 8.5t22.5 4q49 -1 89 -30t59 -75q17 -44 18.5 -93t-9.5 -97q-7 -30 -22 -60t-35.5 -56t-46.5 -46t-54 -30q-2 -1 0 -3t0 -3q-24 -4 -48 -9.5
t-47 1.5h1z" />
    <glyph glyph-name="six" unicode="6" horiz-adv-x="493" 
d="M209 30q-50 -3 -87 31t-61 83t-36.5 101.5t-13.5 85.5q-1 31 5 63t11 63q5 26 15 45t17 41q1 1 2.5 0.5t1.5 0.5q7 19 20 37.5t30 35.5t35.5 30t36.5 22q47 22 95 22t98 -14l5.5 -3.5t12.5 -8t12.5 -9t5.5 -5.5q2 -6 -1.5 -15t-8.5 -18t-9.5 -15.5t-4.5 -7.5
q-4 -7 -8 -16t-11 -16q-4 -3 -10 -3t-8 3q-11 14 -29 21.5t-26 23.5q-6 14 -25 15t-40 -3.5t-39 -11t-21 -9.5q-11 -8 -22 -17t-18 -20q-26 -41 -37.5 -76.5t-11 -70.5t11.5 -70t31 -74q15 -30 40.5 -56t56.5 -41.5t66 -18t71 15.5q49 25 60.5 67t-7.5 95q0 1 -2 0t-2 0
q-1 5 -6.5 13t-12 15.5t-13.5 14t-11 7.5q-47 20 -86 12.5t-51 -63.5q-1 -1 2 0t3 -1q1 -7 5.5 -15t8 -16.5t5.5 -17t-3 -14.5q-9 -12 -20 -8.5t-21 14.5t-18.5 25t-11.5 22q-11 26 -8.5 56t15 56.5t34 46.5t48.5 28q2 1 2.5 3t1.5 2q47 5 81 -2.5t58 -27t39.5 -51.5
t26.5 -75q2 -6 3 -12t1 -13q1 -140 -72.5 -217t-200.5 -85z" />
    <glyph glyph-name="seven" unicode="7" horiz-adv-x="481" 
d="M199 30q-2 0 -2.5 3t-1.5 3q-33 0 -50 22t-23.5 52.5t-5 63t5.5 54.5q5 28 25.5 64t47 72t53 68.5t43.5 53.5q4 5 12 11.5t15 12.5t9.5 11t-3.5 6q-20 5 -35 4.5t-29 -1t-28.5 1.5t-32.5 10q-21 9 -36.5 18t-29.5 13.5t-28.5 3t-34.5 -13.5q-8 -5 -14 -16t-11.5 -20.5
t-11 -14t-13.5 2.5q-14 13 -7 36t24.5 47.5t40.5 46t40 32.5q11 7 31 6.5t39.5 -4.5t34.5 -9t17 -6q18 -9 42 -17t49 -10.5t49 3.5t40 25q3 3 7.5 10.5t10.5 13.5t13 6.5t14 -9.5q12 -18 0 -46t-33.5 -58t-45 -57t-33.5 -44q-12 -19 -27.5 -44t-31 -51t-30 -52t-24.5 -46
q-9 -18 -15.5 -46.5t-4.5 -55t14.5 -44.5t41.5 -16q4 0 10 4t8 -1q9 -20 7.5 -33t-8.5 -23t-17.5 -18t-20.5 -18q-11 -10 -27 -8.5t-29 1.5z" />
    <glyph glyph-name="eight" unicode="8" horiz-adv-x="473" 
d="M200 29q-29 0 -61 21t-59.5 51.5t-46 64.5t-21.5 61q-4 46 1.5 74t19 48t33 36t41.5 38q5 5 -2 12t-11 12q-5 5 -14.5 22.5t-9.5 22.5q-8 52 8 91.5t46.5 64.5t73 34t88.5 0q64 -12 105.5 -53t33.5 -111q-3 -19 -11.5 -31t-19.5 -20.5t-22 -16.5t-17 -20q20 -35 44 -62.5
t41 -55t22 -58t-13 -71.5q-34 -79 -98.5 -116.5t-150.5 -37.5zM303 451q40 5 49 24.5t-1.5 44.5t-36.5 50.5t-55.5 43t-58 22t-45.5 -13.5q-30 -30 -20.5 -62t37.5 -57.5t66 -40t65 -11.5zM282 115q15 -1 30 3q24 6 41 23t22.5 39.5t-1.5 47t-30 43.5q-14 12 -43.5 34
t-61.5 43t-60.5 35.5t-40.5 11.5q-20 -6 -31 -22.5t-15 -37t-2 -43t10 -40.5q8 -19 29 -41.5t48 -43t55 -35t50 -17.5z" />
    <glyph glyph-name="nine" unicode="9" horiz-adv-x="492" 
d="M197 35q-15 1 -34.5 6t-39 13t-36.5 19t-28 25q-5 6 -15 17t-18.5 23t-13 23t1.5 15q9 7 23.5 14.5t29.5 12t27.5 3.5t18.5 -11q18 -31 31.5 -53t29.5 -34.5t38.5 -15t59.5 6.5q12 3 25 14t24.5 25t20 29.5t12.5 26.5q14 45 21.5 98.5t6.5 109t-11.5 107.5t-31.5 94
q-1 1 -2.5 0t-1.5 0q-10 17 -30 30.5t-40 14.5q-59 3 -88.5 -21t-40.5 -78q-6 -27 -6 -68.5t9.5 -81t31.5 -68t60 -30.5q35 -1 51 19t15 54q0 10 -5.5 21t-11 21.5t-7.5 20.5t4 19q3 4 9 2t11 -3q1 -1 -0.5 -3.5t0.5 -2.5q17 -1 25 -23.5t9 -52t-4 -58.5t-15 -42
q-4 -6 -10.5 -15.5t-14.5 -19.5t-17.5 -18t-19.5 -10q-2 -1 -4 0t-3 0t0 -2.5t0 -1.5q-40 -6 -78.5 -4t-69.5 31q-34 33 -49.5 72t-17.5 81t6 84.5t22 82.5q1 1 3 -0.5t3 0.5q6 35 32 61.5t60 43.5t71 24t65 3q21 -3 48 -16t52.5 -32t45.5 -42t27 -45q15 -46 18 -103.5
t-6.5 -117t-31.5 -115t-56.5 -97t-82 -65t-107.5 -17.5z" />
    <glyph glyph-name="colon" unicode=":" horiz-adv-x="160" 
d="M57 1q1 0 2 -0.5t2 -0.5h-6q1 0 1 0.5t1 0.5zM54 392q-23 -2 -33.5 25t-10.5 61.5t10 65.5t28 37q59 21 82 -4.5t19 -66t-30 -78t-65 -40.5zM54 7q-23 -2 -33.5 25t-10.5 61.5t10 65.5t28 37q59 21 82 -4.5t19 -66t-30 -78t-65 -40.5z" />
    <glyph glyph-name="semicolon" unicode=";" horiz-adv-x="161" 
d="M53 -61q0 16 3.5 31.5t6.5 31.5q-1 0 -2 -0.5t-2 -0.5q1 0 1 -0.5t1 -0.5h-6l1 1q-21 4 -31 31.5t-10 60.5t8.5 61.5t25.5 34.5q38 14 60.5 7t32.5 -25.5t8 -45.5t-12 -52q-11 -35 -17.5 -72t-32.5 -66q-12 -8 -21 -5.5t-14 9.5zM54 392q-23 -2 -33.5 25t-10.5 61.5
t10 65.5t28 37q59 21 82 -4.5t19 -66t-30 -78t-65 -40.5z" />
    <glyph glyph-name="question" unicode="?" horiz-adv-x="555" 
d="M209 227q-4 -1 -12.5 4.5t-16 16t-11 25t2.5 32.5q7 35 6.5 62.5t4.5 64.5h-2q6 41 31.5 80.5t59 75.5t69 68t62 59t38 47.5t-4.5 33.5q-48 42 -104 41.5t-107 -26.5t-89.5 -69t-50.5 -87q-3 -6 -15 -9t-21 -1q-17 6 -25 21t-11 33.5t-2.5 37t1.5 30.5q2 19 12.5 40
t28 39.5t39.5 33t46 22.5q48 15 94 13t87.5 -15.5t77.5 -36t64 -48.5q18 -17 34 -32t25.5 -32.5t11.5 -39t-7 -50.5q-22 -64 -63 -103t-80 -69t-65 -58.5t-18 -72.5q5 -28 -6 -51.5t-28 -40.5t-33.5 -27.5t-22.5 -11.5zM200 -3q-23 -2 -33.5 25t-10.5 61.5t10 65.5t28 37
q59 21 82 -4.5t19 -66t-30 -78t-65 -40.5z" />
    <glyph glyph-name="A" unicode="A" horiz-adv-x="926" 
d="M37 691q-21 22 -25 45.5t3 47t21.5 46t28.5 43.5q1 1 2.5 0t2.5 0q2 1 0.5 3t-0.5 3q27 14 51.5 39t49.5 37q8 5 20.5 8.5t13.5 3.5q30 1 56.5 -9.5t51.5 -24t49.5 -26t51.5 -15.5q8 -1 13.5 4t10.5 9.5t10.5 7t13.5 -3.5q5 -4 5 -13t-5 -12q-14 -8 -38 -26.5t-50.5 -35
t-51.5 -24.5t-41 4q-29 21 -60.5 38.5t-61 21.5t-53.5 -11.5t-37 -60.5q-3 -9 0 -19.5t6.5 -21.5t5 -21t-3.5 -19q-1 -2 1.5 -6.5t-1.5 -6.5q-9 -4 -21 -8t-20 3h1zM788 33q-34 5 -52.5 21.5t-29 41t-16 55.5t-13.5 65q-4 15 -2 46t2 62t-4 54t-20 22q-17 -1 -27.5 -14.5
t-19 -30.5t-18.5 -33t-25 -21q-19 -6 -43.5 1.5t-52 20.5t-56 27t-54.5 20t-48.5 -0.5t-38.5 -34.5q-3 -5 -10.5 -4t-11.5 4q-13 11 -2 33t31.5 44t43 40.5t31.5 21.5q3 1 1 3t-1 3q22 17 38.5 23t32 4.5t32.5 -8t41 -13.5q6 -2 30 -13.5t51 -23.5t50 -18.5t28 0.5
q4 7 3 43.5t-7 86.5t-17.5 104t-28.5 95t-39 60.5t-51 -0.5q-88 -60 -146 -148.5t-99 -197.5q-7 -19 -19 -47.5t-16 -50.5q-2 -13 -6 -49.5t-10 -81t-16 -89.5t-24.5 -75t-35.5 -37t-49 25q-4 6 -2.5 16.5t6.5 22.5t11.5 22.5t12.5 15.5q5 6 11.5 15t10.5 19t2.5 19.5
t-11.5 15.5q-15 9 -34 32t-35.5 50t-27.5 52t-12 38q-4 68 20.5 121.5t78.5 102.5q31 29 75 62t79 54q18 11 51.5 31t73 44.5t81.5 50.5t78 50t61.5 43t32.5 29q1 3 9 3t9 -5q2 -7 -0.5 -11.5t-5.5 -8.5t-5.5 -8.5t-0.5 -10.5q4 -12 13 -20t20 -15t21.5 -14.5t17.5 -17.5
q44 -63 61 -144.5t22.5 -169t7 -174t13.5 -158.5q1 -1 4 0.5t3 -1.5q1 -12 10.5 -17.5t21 -9t22 -7t15.5 -12.5q4 -9 -10 -33.5t-35.5 -49t-44.5 -43t-37 -16.5v1z" />
    <glyph glyph-name="B" unicode="B" horiz-adv-x="1033" 
d="M592 23q-7 1 -22.5 6t-20.5 6q-13 3 -31 15t-32 14q-2 1 0 3.5t0 3.5q-24 7 -57 24t-68.5 34t-71.5 29.5t-66.5 11t-53.5 -22t-33 -68.5q-2 -5 -5.5 -9t-7.5 -4q-35 -2 -47 14t-8 38t20 44t36 32q2 1 0.5 2.5t-0.5 2.5q6 5 12.5 6.5t12.5 5.5q1 1 0 2.5t0 2.5
q24 13 50 22.5t49 23.5q3 2 2 6.5t1 8.5q1 1 2.5 0t2.5 0q8 30 16.5 72t10.5 84t-6 78t-33 55q-15 12 -27 14.5t-19.5 4.5t-10 6.5t0.5 20.5q3 11 20.5 19t40 13.5t46 9.5t38.5 9q14 5 31.5 19t35.5 27.5t34.5 19.5t28.5 -6q7 -7 4 -17t-7 -18q-16 -26 -24.5 -73t-9 -99.5
t5 -102t17.5 -80.5q6 -15 3 -23t-12 -12t-23.5 -8t-30.5 -12q-2 0 -2 -3t2 -3q56 -2 100.5 -22t86 -43.5t84 -41.5t93.5 -15q29 2 59 25.5t51 56.5t28.5 69.5t-8.5 63.5q-24 42 -67 79t-91.5 55t-97 10t-82.5 -56q-8 -11 -17 -25t-19 -24t-19.5 -12t-18.5 10
q-18 27 -7.5 51.5t35 47t54 42.5t48.5 38q3 2 6 4.5t7 3.5q1 1 3 0t4 0q1 1 0 2.5t0 2.5q16 11 37.5 18t41.5 15.5t35 19.5t18 31q7 55 -20 85.5t-70 41.5t-94 5.5t-93 -23.5q-44 -19 -86 -42.5t-83 -48.5q-2 -1 0 -2.5t0 -3.5t-4 -0.5t-3 0.5q-8 -8 -42 -20t-75 -21
t-81 -11.5t-60 9.5q-22 13 -26.5 38t3 41.5t24 14t37.5 -45.5q13 -28 46.5 -21.5t72 28.5t75.5 48.5t58 38.5q7 4 18 13t23 18t23 16.5t18 8.5q1 0 0 2t0 2q16 7 33 22t33 23q131 63 240 35.5t183 -159.5q4 -6 8 -7.5t8.5 -1.5t8 -1t6.5 -6q1 -1 3 0.5t2 -0.5
q1 -27 -12.5 -42t-34 -25t-45 -18t-46.5 -20q-4 -4 0 -7t11 -3t12 -4q1 0 0 -2t0 -3q21 0 48 -15t53 -35t47 -42.5t30 -37.5q33 -58 21.5 -112t-42.5 -103q-27 -41 -59.5 -81.5t-70.5 -75t-81.5 -60t-91.5 -37.5q-21 -5 -42 -8.5t-41 0.5z" />
    <glyph glyph-name="C" unicode="C" horiz-adv-x="769" 
d="M440 33q-38 -1 -67 3.5t-55 12.5t-52 20t-59 26q-1 0 0 2t0 3q-13 7 -29 20t-32 29t-29.5 32.5t-21.5 29.5q-5 9 -19.5 26.5t-18.5 25.5q-48 111 -46.5 203.5t40.5 169t109.5 138.5t161.5 114q82 48 169 49q24 0 54.5 -6.5t62.5 -12t62 -5t54 14.5q16 10 24 6t10 -15.5
t-2 -27t-11 -28.5q-4 -6 -10 -17.5t-10 -15.5q-1 -1 -2.5 0.5t-2.5 -0.5q-7 -8 -11 -22.5t-14 -22.5q-11 -9 -21 -28t-15 -30q-1 -1 -3 0t-2 0q-5 -23 -4 -49t0 -51t-8.5 -46.5t-29.5 -35.5t-29.5 -9.5t-7 20t6.5 39t11 47t6 42.5t-7 27q-25 23 -63 47t-81.5 38.5
t-88.5 14.5t-82 -24q-14 -9 -38.5 -22t-36.5 -24q-40 -37 -55 -87.5t-19 -105.5q0 -2 2.5 0t2.5 0q2 -55 26.5 -108.5t63 -98.5t87.5 -78.5t100 -48.5q52 -15 91.5 -17t73 9t65.5 35.5t70 62.5q7 6 19.5 7.5t17.5 -7.5q12 -22 3.5 -49.5t-26.5 -54t-42 -48.5t-43 -32
q-1 -1 0.5 -3.5t-0.5 -3.5q-14 -5 -30.5 -15.5t-29.5 -17.5q-1 -1 0 -3t0 -2q-16 -4 -33.5 -11t-35.5 -13.5t-36 -12t-34 -5.5z" />
    <glyph glyph-name="D" unicode="D" horiz-adv-x="927" 
d="M513 23q-15 -1 -28.5 5t-25.5 12q-11 4 -24.5 14t-28 20.5t-28 20t-23.5 12.5q-2 1 -0.5 3.5t0.5 3.5l-15.5 15.5t-31.5 32.5t-32 33t-19 17q-41 21 -71 23.5t-52.5 -10.5t-38.5 -41t-29 -69q-2 -7 -12 -7.5t-17 2.5q-26 11 -26.5 30.5t13.5 42t38.5 47t50 45t46 36
t27.5 20.5q2 1 1 3.5t0 2.5q16 1 25.5 34t13.5 74.5t3.5 79t-4.5 47.5q-6 16 -27.5 34t-44.5 15q-8 -1 -14.5 6t-3.5 14q4 11 25.5 17.5t48.5 10.5t53 7.5t39 9.5q10 4 34 16.5t46.5 21.5t37 10t5.5 -17q-12 -25 -22.5 -73.5t-15.5 -100t-3.5 -97t13.5 -64.5q4 -5 5 -13
t-3 -12q-5 -4 -24.5 -12.5l-39 -17t-32 -15.5t-3.5 -8q40 -4 70 -3.5t65 -17.5q1 -1 0 -2.5t0 -2.5q7 -4 16.5 -6.5t16.5 -9.5q1 -2 11 -10t21.5 -18.5t22 -20t11.5 -12.5q3 -7 13 -16t23 -16.5t25 -12.5t19 -5q36 -2 66 10t53.5 33t41.5 49t30 58q22 55 28 115t-6 116.5
t-43 106t-84 83.5q-38 24 -83 29q-50 6 -100.5 4.5t-101.5 -5.5t-102.5 -8t-101.5 -4q-32 1 -60 14t-40 45q-9 24 -4.5 61.5t17 68t32 43t41.5 -14.5q23 -29 58.5 -38t73 -8.5t72.5 6t59 7.5q15 2 48 3.5t69.5 0.5t68.5 -6t44 -16q1 -1 2.5 2t3.5 2l44 -20t40 -25
q5 -4 9.5 -7t7.5 -6q14 -16 28.5 -34t25.5 -38q42 -73 57 -154.5t6 -162.5t-40.5 -156t-82.5 -135t-121 -99t-156 -48z" />
    <glyph glyph-name="E" unicode="E" horiz-adv-x="753" 
d="M377 31q-25 2 -63 15t-77.5 32.5t-74.5 44t-54 49.5q-42 57 -67.5 133.5t-29 157t16 157t67.5 132.5q34 39 78 77.5t94 66t105 39t111 -1.5q20 -5 49 -19t59.5 -23t58 -6t44.5 32q4 8 16.5 10t19.5 -5q22 -26 5.5 -59.5t-51 -63t-75.5 -48.5t-67 -15q-45 7 -84 20.5
t-78 23.5t-80 12.5t-88 -12.5q-1 0 0.5 -3t-0.5 -3q-25 -2 -48.5 -23.5t-42.5 -54t-32.5 -71.5t-18 -75t1 -65t23.5 -41q8 -6 13.5 4t10.5 26t9.5 33.5t11.5 26.5q1 1 3.5 -0.5t2.5 0.5q3 14 7 16.5t11 12.5q28 39 62 43t72.5 0t80 -3.5t83.5 31.5q17 12 21 4.5t-1 -26
t-15.5 -44t-22.5 -49.5t-22.5 -41.5t-15.5 -20.5q-28 -18 -53 -17t-50 7.5t-50.5 12t-55.5 -2.5q-50 -14 -60 -37t6 -49.5t51.5 -54.5t75 -51t76.5 -39.5t57 -20.5q19 -4 42.5 -6t47.5 -1t47 5.5t40 13.5q3 1 11 5t17.5 8.5t17.5 9t10 6.5q7 8 13.5 21t13 25t15 20.5
t19.5 7.5t16 -9t5.5 -20t-1 -25t-4.5 -23q0 -2 -7.5 -12.5t-16 -22.5t-16 -22t-9.5 -12q-19 -26 -53.5 -52t-75 -47t-82.5 -33.5t-76 -10.5z" />
    <glyph glyph-name="F" unicode="F" horiz-adv-x="728" 
d="M166 39q-5 0 -10.5 2.5t-5.5 6.5q-2 11 2 22t9.5 21.5t10.5 21.5t5 23q3 80 10 161t10.5 162t-0.5 161.5t-23 157.5q-6 25 -32.5 36t-55.5 20.5t-52.5 24.5t-23.5 47q0 4 13.5 2t31 -6.5t32.5 -10.5t18 -9q3 -4 23 -7t44 -4.5t46 -1t30 3.5q24 10 71.5 26t99.5 27.5
t99 13t70 -16.5q6 -5 20 -10t29.5 -8t30.5 -2t23 7q12 7 25 0q7 -4 -7.5 -34t-35.5 -64.5t-42.5 -64.5t-29.5 -35q-5 -3 -12 -3.5t-9 3.5q-5 13 1.5 27.5t-0.5 25.5q-13 19 -32.5 32.5t-41.5 21.5q-17 7 -43.5 14t-53 8.5t-47 -5.5t-26.5 -27q-11 -36 -12 -77t1.5 -83.5
t4 -84.5t-3.5 -80q-1 -4 2 -8l6 -8q3 -2 5 0q10 10 21.5 23t22.5 20q2 0 0.5 1.5t-0.5 2.5q14 12 28.5 24.5t32.5 16.5q48 14 97 20t97 -8q9 -3 9.5 -12t-4 -19.5t-11 -20.5t-12.5 -15q-7 -6 -17 -22t-19.5 -34t-18 -33t-11.5 -18q-5 -4 -13 -5t-12 3q-9 10 -8.5 26.5
t-10.5 23.5q-57 33 -103 23.5t-66 -61.5q-13 -33 -16.5 -68.5t-2 -72t7.5 -72.5t12 -71q2 -9 8.5 -18.5t12 -19t7.5 -18t-6 -15.5q-9 -7 -19 -7t-21 3.5t-22.5 8t-23.5 7.5q-29 6 -57 -6t-56 -16z" />
    <glyph glyph-name="G" unicode="G" horiz-adv-x="900" 
d="M511 159q24 -4 46.5 -4t39.5 5q94 32 125.5 95t17.5 156q-3 20 -11.5 37.5t-17.5 33.5q-1 2 -3.5 0.5t-3.5 -0.5q-4 10 -15 27t-24.5 32.5t-28 26t-25.5 7.5q-9 -3 -9.5 -17t-8.5 -18q-10 -5 -20.5 -1.5t-13.5 13.5q-4 9 1.5 18.5t9.5 19.5q2 4 2 9t-4 7q-26 15 -51 18
t-44 -6.5t-30.5 -30.5t-11.5 -54q0 -1 2 0t3 0q9 -11 14 -13.5t10.5 -2t13 2.5t22.5 0q25 -3 23.5 -16.5t-15.5 -30.5t-33 -36t-30 -32q-7 -9 -19 -30t-25.5 -38.5t-26.5 -24t-21 12.5q-13 31 -17.5 52t-17.5 51q-15 36 -7.5 67.5t27.5 60t48 54.5t53 49q11 10 32.5 15t47 8
t50.5 5.5t42.5 7.5t24 13.5t-5.5 24.5q-27 35 -68.5 56.5t-88.5 29.5t-96.5 2.5t-91.5 -23.5q-12 -5 -30 -16.5t-34.5 -25.5t-29 -30t-13.5 -29q-1 -2 -4.5 -1.5t-4.5 -0.5q-35 -64 -46 -121.5t15 -130.5q1 -1 2.5 0t2.5 0q12 -29 28 -57t36 -51q27 -29 56.5 -57t62.5 -50
q40 -27 90.5 -44.5t98.5 -24.5zM435 25q-53 4 -111 20t-104 47q-38 26 -80 62t-65 74q-10 16 -27 40.5t-21 42.5q-9 40 -13.5 87t-1.5 94.5t15.5 92t38.5 79.5q40 52 86 98.5t98.5 82.5t112 59.5t126.5 31.5q62 8 124 -3q12 -2 30 -11.5t36.5 -20t35.5 -17.5t27 -4t11 15
t9 17q5 3 13 2t12 -6q11 -16 -2.5 -41.5t-34.5 -54t-43.5 -55.5t-29.5 -47q-1 -4 -6 -6t-8 -7q-1 -1 -1.5 -4t1.5 -4q40 -21 77 -37t67 -37t50.5 -52t28.5 -82q7 -49 1.5 -87t-22 -72t-43 -66.5t-60.5 -70.5q-2 -1 -5 -1.5t-4 -1.5q-26 -33 -63.5 -59t-79.5 -45t-86.5 -31.5
t-83.5 -18.5q-2 0 -3 -1.5t-2 -1.5z" />
    <glyph glyph-name="H" unicode="H" horiz-adv-x="861" 
d="M799 19q-48 7 -74.5 38.5t-42.5 78.5q-1 1 -3 -0.5t-2 0.5q-17 76 -18 158.5t-8 161.5q-2 22 -12.5 43.5t-19.5 43.5q-1 3 -3 3t-3 1q-2 1 -1.5 4.5t-0.5 3.5q-7 1 -14.5 11t-13.5 14q-38 23 -85.5 28t-91.5 -6.5t-79 -38.5t-48 -69q-6 -22 -11 -59.5t-6.5 -82.5t0 -92
t7 -86.5t15.5 -68t25 -35.5q7 -4 9 -17t-6 -16q-12 -5 -24 -2t-24.5 8t-25 10.5t-25.5 6.5q-17 1 -41 -5t-45.5 -10.5t-36.5 -2t-15 20.5t6.5 30.5t14 24t14.5 23.5t8 28q1 13 2 54t2.5 86.5t2.5 85t2 49.5q1 9 2 51t2 93.5t1 100.5t-1 71q0 2 -3.5 2t-3.5 1q-4 21 -11.5 36
t-19.5 26.5t-27 21.5t-34 23q-12 8 -19 26.5t5 29.5q11 10 32 5t45 -15.5t47 -20.5t38 -10q55 1 108 12t106 21.5t106.5 16.5t108.5 -2q21 -3 42 -10t38 -20q14 -10 29 -21t26 -24t17 -29.5t2 -37.5q-5 -24 -23.5 -29t-40.5 0.5t-42.5 17.5t-30.5 24q-6 7 -20.5 16.5
t-31.5 18t-32.5 15t-24.5 8.5q-55 10 -115.5 4t-107.5 -35q-17 -11 -12 -35.5t6 -44.5q0 -17 -2.5 -37.5t-4.5 -42t-2 -42.5t5 -38q1 -2 5.5 -2t4.5 2q1 17 29.5 31.5t64.5 26t68.5 19.5t42.5 12q22 9 54 2t65 -20.5t62 -28.5t45 -24q1 0 0 -2t0 -3q24 -18 48 -55.5
t42.5 -84t28.5 -97t6 -96t-25 -80.5t-64 -50q-12 -5 -7.5 -14t17 -19t28.5 -19t25 -13q10 -4 13.5 -16.5t-2.5 -22.5q-5 -9 -15.5 -14.5t-20.5 -3.5z" />
    <glyph glyph-name="I" unicode="I" horiz-adv-x="714" 
d="M269 31q-25 1 -48 11t-46 18q-2 1 -0.5 3.5t0.5 3.5q-49 22 -82.5 48.5t-77.5 45.5q-5 1 -5 7t2 9q12 15 32.5 32t43 33t45 30t39.5 23q2 1 0.5 3.5t-0.5 3.5l24 16t25 -1q6 -5 5 -10t-4.5 -11t-8 -12.5t-5.5 -13.5q-4 -29 9.5 -58t37 -52t54 -38t60 -15.5t55.5 15.5
t40 55q8 22 12 48.5t5.5 54t1.5 55t1 51.5q1 30 6 76.5t2.5 92.5t-19 83t-57.5 47q-8 1 -8 13t6 16q22 16 45.5 28l47 24t45 27t39.5 38q1 1 5.5 4t2.5 4q-7 1 -21.5 -5t-30 -14.5t-29.5 -18t-21 -16.5q-15 -13 -39 -21t-50 -12.5t-51 -6t-42 -2.5q-4 0 -12.5 0.5t-18 2
t-18 2.5t-11.5 2q-26 6 -49.5 14t-47 13.5t-46.5 7t-48 -4.5q-23 -5 -28 2.5t2 22.5t22 34.5t30.5 38t29 34t17.5 21.5t13.5 5.5t15.5 -4.5q51 -31 110.5 -45t121 -15t122 9.5t113.5 28.5q9 3 17.5 8.5t17 10t16.5 5t14 -7.5q10 -12 3 -25.5t-20 -28t-26 -29.5t-15 -31
q-7 -64 -7 -130.5t1.5 -133t1.5 -132.5t-6 -131q-3 -29 -16 -55.5t-23 -51.5q-1 -2 -4 0t-4 0q-16 -40 -53 -68t-82.5 -46t-93.5 -26.5t-85 -8.5z" />
    <glyph glyph-name="J" unicode="J" horiz-adv-x="861" 
d="M440 -114q-50 9 -94 20.5t-99 31.5q-37 14 -63 41.5t-42 61t-22.5 68t-4.5 61.5q2 23 9.5 44.5t14.5 43.5q1 1 3 -0.5t3 0.5q1 4 1.5 8t2.5 7q15 23 49 65.5t61 90.5t33 94t-35 76q-18 13 -19 31.5t27 18.5q43 0 64 -17t27 -44t-1 -60t-20.5 -64.5t-31 -58.5t-32.5 -41
q-7 -6 -23 -34.5t-32.5 -60.5t-29 -60t-12.5 -33q-2 -110 53 -169t196 -60q69 0 113 20t63.5 53.5t14.5 78t-36 92.5q-5 8 -3.5 17t-0.5 17q0 1 -3 0t-3 0q2 73 10.5 145.5t5.5 143.5q0 6 -1 6h-1q-6 30 -6.5 50.5t-5.5 37t-19.5 31.5t-49.5 34q-21 12 -4.5 24t47.5 24.5
t65.5 24.5t51.5 24q3 3 1.5 7.5t-3.5 5.5q-55 15 -108.5 18t-112.5 0q-31 -2 -75.5 -6t-93 -6t-96 1t-84.5 15t-59 35.5t-19 63.5q1 18 11 22t27 -2q15 -6 18 -17.5t6.5 -24t14.5 -24.5t41 -19q4 -1 31.5 1.5t67 7.5t85.5 12t85.5 16t67.5 19.5t33 22.5q5 11 35.5 14t68 1.5
t71.5 -5.5t44 -6q17 -4 35.5 -8t31.5 -16q12 -12 27.5 -20t26 -16t12.5 -17.5t-13 -24.5q-16 -16 -32 -27t-28.5 -21.5t-20.5 -22.5t-8 -30q-2 -123 -4.5 -244t20.5 -243q8 -44 18.5 -80t11 -69t-15.5 -64.5t-61 -64.5q-12 -9 -27.5 -19.5t-31.5 -15.5q-1 -1 0.5 -4t-0.5 -5
q-17 -5 -34 -12.5t-33 -10.5q-40 -6 -77 -7t-75 6z" />
    <glyph glyph-name="K" unicode="K" horiz-adv-x="888" 
d="M707 32q-9 0 -15.5 8t-16.5 13q-3 1 -9.5 7t-14.5 13t-14.5 13t-9.5 7q-2 1 -0.5 4t0.5 3q-8 0 -14 10t-10.5 22.5t-7.5 24.5t-5 17q-10 33 -22 88t-29.5 108.5t-44 94.5t-65.5 47q-11 2 -24 2.5t-25 -1.5t-21 -7t-11 -15q-18 -83 -13 -176.5t18 -176.5q1 -11 10 -29.5
t14.5 -36t2 -28.5t-26.5 -7q-42 6 -81 8.5t-82 -3.5q-23 -4 -28 4.5t-1.5 22.5t11.5 31t10 30q20 120 18 245.5t-2 244.5q0 36 2.5 71.5t-4 64t-29 47.5t-72.5 22q-12 1 -34 13t-36.5 27.5t-13.5 30t33 19.5q4 1 8 -1l8 -4q1 0 0 -1.5t0 -2.5q18 -19 40 -22.5t45 1t46 14
t45 15.5t52.5 13t61 8t57 -7t40.5 -32q3 -5 4.5 -13.5t-4.5 -12.5q-9 -6 -20.5 -5.5t-22.5 0.5t-20 -2.5t-13 -13.5q-9 -26 -18 -61.5t-14 -73.5t-3.5 -75t14.5 -67q7 -16 26.5 -13.5t44 14t49.5 27t43 25.5q5 3 8 9.5t8 13.5q3 3 17.5 21t30.5 38t29.5 37.5t14.5 19.5
q6 9 20 30.5t31 44t34.5 40t30.5 19.5q2 0 0.5 2.5t-0.5 3.5q18 8 34 17.5t30.5 15.5t28.5 5t28 -15q27 -26 18.5 -33t-31.5 -9.5t-50 -8t-37 -28.5q-1 -6 5 -12q43 -36 48.5 -65.5t-11 -54.5t-49 -45t-67.5 -37.5t-64.5 -31.5t-40.5 -27q-3 -3 4 -9.5t17 -14t19.5 -15
t12.5 -11.5q23 -33 38 -72.5t27 -80.5t24 -81.5t29 -77.5q9 -21 31 -27.5t42 -10t31.5 -10.5t0.5 -28q-8 -15 -26.5 -33t-41 -34.5t-44.5 -27t-37 -10.5h1z" />
    <glyph glyph-name="L" unicode="L" horiz-adv-x="827" 
d="M772 30q-8 0 -22.5 2t-30.5 4t-30.5 4t-21.5 4q-75 15 -152 15t-154 -5.5t-154 -11.5t-152 -3q-23 1 -19.5 8.5t16.5 17.5t29 21t19 18q16 38 18.5 79.5t0 84t-6.5 85.5t0 84q4 55 2.5 109.5t-1.5 107.5q0 2 -2.5 2t-2.5 2q0 38 -5.5 57t-17 32.5t-28.5 27t-41 38.5
q-15 16 3.5 26.5t49.5 17.5t65 12t50 11q44 16 98.5 34t110 25t106 -2t87.5 -47q11 -12 11 -22t-7.5 -16.5t-19.5 -8t-24 3.5t-35 11t-48.5 11t-50 6t-37.5 -5q-52 -20 -73 -52.5t-26.5 -71t-3 -79.5t-1.5 -79q-11 -101 -6 -203.5t5 -205.5q0 -22 15.5 -26.5t40 2t55.5 20.5
t62 27.5t58.5 24t45.5 9.5q21 -1 37 -9t31 -18.5t29.5 -22t31.5 -18.5q2 -2 3 3t-1 7q-3 1 -5 11t-2.5 22.5t0 23.5t0.5 15q5 28 11.5 56.5t11 57t3.5 57t-12 55.5q-3 8 -8.5 16.5t-9 16t-2.5 13t10 7.5q27 6 43.5 -3t26.5 -27t15.5 -40.5t11.5 -41.5q10 -40 10.5 -78.5
t0 -77t2.5 -77t20 -77.5q33 -80 -33 -77z" />
    <glyph glyph-name="M" unicode="M" horiz-adv-x="1243" 
d="M724 35q-22 17 -51 15.5t-59 -7t-57.5 -7.5t-44.5 15q-8 7 -2.5 17t14.5 21.5l18 23t9 22.5q9 143 12 292t-12 291q-1 9 -7 22t-15.5 24.5t-20.5 18.5t-21 4q-37 -10 -73.5 -49.5t-69.5 -95.5t-59 -121.5t-41 -128.5t-16.5 -116.5t14.5 -85.5q1 -2 3 -0.5t2 0.5
q1 -22 4 -51.5t0.5 -54t-15 -38.5t-43.5 -3q-23 7 -22.5 23.5t4 35t0.5 36.5t-32 29q-57 22 -87 61t-36.5 86.5t8.5 99.5t48 100q58 85 142.5 152.5t171.5 123.5q9 6 21 19t25.5 27t26.5 25t24 12q1 0 0 1.5t0 3.5q32 32 45 47.5t24.5 14.5t30.5 -19t63 -53q8 -7 18 -13.5
t15 -14.5t11.5 -16t10.5 -16q2 -6 2 -17t0.5 -20.5t2.5 -15.5t8 -3q27 15 48.5 38.5t42 49t41.5 50t45 40.5q7 4 34.5 -22.5t62 -65.5t70.5 -81.5t59 -68.5q6 -7 12 -12.5t11 -12.5q4 -5 10 -16.5t10 -16.5q48 -63 61.5 -129t2 -132t-42.5 -130t-72 -123q-7 -9 -34 -26
t-59.5 -31t-63 -19.5t-44.5 7.5q-14 14 -23.5 17t-19.5 3h-22t-32 8q-11 5 -12.5 10.5t2.5 12.5t10.5 15t10.5 17q1 1 3.5 -0.5t3.5 0.5q8 7 25 30t36.5 47t37.5 41t28 12q18 -11 19 -28.5t0.5 -35t4.5 -32t32 -18.5q42 -8 70 10t43 49t18.5 69.5t-1.5 72.5
q-4 24 -25.5 54.5t-37.5 57.5q-4 7 -18.5 24.5t-31 37t-31.5 37l-21 24.5q-1 1 -2.5 0t-2.5 0q-10 20 -29 42t-39.5 44t-39.5 44t-28 41q-5 10 -26 -2.5t-43.5 -33.5t-41 -44t-19.5 -33q-11 -123 -13 -252t13 -252q1 -9 8.5 -21t15 -24.5t13 -24t2.5 -20.5q-2 -8 -10.5 -14
t-14.5 -1zM38 659q-21 3 -25.5 20t1.5 42t20.5 53.5t30.5 54t32 45t26 25.5q50 33 110.5 37t116.5 -29q16 -9 23.5 -12t13.5 -1.5t14 6t26 10.5q7 3 13.5 -0.5t10.5 -10t5 -13.5t-4 -12q-13 -12 -38 -34.5t-52 -43t-51.5 -33t-36.5 -4.5q-26 17 -52 33t-55 15q-1 0 -2 -2.5
t-3 -2.5q-45 -1 -59.5 -24.5t-19.5 -51.5t-11 -49.5t-34 -17.5z" />
    <glyph glyph-name="N" unicode="N" horiz-adv-x="843" 
d="M735 19q-49 25 -77 66t-26 105q0 3 -3 2.5t-3 0.5q-4 44 -2 95.5t4 106t-0.5 108.5t-16.5 103t-43 89.5t-80 67.5q-32 17 -48 23t-28.5 3.5t-26 -11t-38.5 -22.5q-3 -2 -15.5 -9.5t-26.5 -17t-25 -20.5t-11 -18q-5 -69 -10 -142t-6.5 -146.5t2 -146t14.5 -141.5
q1 -11 10.5 -22t17.5 -21q1 -1 3 0.5t2 -0.5q0 -6 2 -16t-5 -12q-18 -6 -38.5 -6t-36.5 11q-18 12 -48.5 8.5t-58 -8.5t-44 -3.5t-7.5 23.5q9 23 16.5 75t13.5 119t10 140.5t6 138t2 112.5t-1 64q-5 42 -28.5 47.5t-63.5 -5.5q-2 -2 -5.5 0t-4.5 5q-1 20 22.5 54t55.5 65
t64.5 49.5t48.5 8.5q22 -14 33.5 -32.5t17.5 -40.5t8.5 -46.5t7.5 -49.5q0 -1 14.5 10t37 28t49 37.5t50.5 39t41.5 32t21.5 16.5q7 4 18 0q60 -23 118.5 -74.5t105 -119.5t76 -146t32 -154t-28 -143.5t-104.5 -113.5q-12 -7 -9.5 -21t13 -28t26.5 -25.5t30 -15.5
q2 0 1.5 -3t1.5 -3q12 -1 20 -9.5t11 -19t1 -21t-10 -15.5q-11 -6 -25 -8t-25 3z" />
    <glyph glyph-name="O" unicode="O" horiz-adv-x="778" 
d="M470 166h12t13 2q14 3 38.5 15.5t47.5 29.5t40.5 36.5t17.5 36.5l5 9t11 21t11 24t5 18q1 26 3 53t-4 51q-16 63 -54 129t-91.5 117.5t-120.5 79.5t-142 15q-2 0 -1 -2t-1 -3q-45 -15 -73 -46t-42 -69.5t-15.5 -80.5t5.5 -79q11 -53 40 -115t73.5 -116t101 -90t120.5 -36
zM387 35q-69 12 -142 51t-130 99t-86.5 138t-11.5 168q16 75 46.5 151t77 139t109 105.5t142.5 51.5q61 7 121 -23.5t108 -73.5q5 -4 12.5 -12t16 -16.5t16 -16.5t12.5 -11q6 -3 15.5 -17t19.5 -31t18 -33t11 -23q23 -59 25.5 -128.5t-13.5 -138.5t-49 -133t-81 -112
q-26 -25 -53 -51.5t-56.5 -47t-61.5 -31t-67 -4.5h1z" />
    <glyph glyph-name="P" unicode="P" horiz-adv-x="1079" 
d="M279 -246q-9 -4 -11 2q-2 26 8.5 44t14.5 42q1 4 -0.5 47.5t-2.5 98t1.5 105.5t10.5 70q1 3 -1 6.5t-4 3.5q-24 1 -39.5 -3t-25.5 -14.5t-17 -26t-15 -36.5q-5 -16 -23.5 -19.5t-21.5 12.5q-7 34 1.5 60t28 46t47.5 35t59 27q10 4 8 18t-1 24q1 12 3.5 36t3.5 52.5
t-0.5 59t-9 55t-22 41t-39.5 17.5q-14 0 -19 7.5t-2.5 17t11 18t22.5 11.5q3 0 26 11.5t51.5 25.5t54.5 28t34 19q11 7 26.5 19.5t31 23t30 14t22.5 -7.5q8 -10 1.5 -25.5t-17.5 -32t-22.5 -33t-13.5 -28.5q-18 -89 -21.5 -182.5t17.5 -181.5q0 -1 18 -10.5t45 -23.5
t58.5 -30.5t59.5 -30.5t47.5 -23.5t23.5 -9.5q43 -3 78.5 30t59.5 88.5t35 125.5t4.5 140t-32.5 132.5t-75 103t-123 52t-178 -20.5q-29 -9 -84.5 -33.5t-115.5 -48.5t-114.5 -39.5t-82.5 -7.5q-50 14 -66 46.5t-10.5 58.5t25 33t39.5 -30q3 -5 1.5 -11.5t-3.5 -13t-3 -13
t3 -11.5q12 -18 29.5 -19.5t37 4t38.5 14.5t33 13q2 1 0 4t0 3q16 1 43 14t54.5 30.5t53 35t38.5 27.5q37 27 86 51.5t87 34.5q108 29 197 11.5t153.5 -72t101.5 -141t42 -194.5q0 -9 -7.5 -41t-17.5 -68t-20.5 -67.5t-16.5 -40.5q-28 -44 -64 -92.5t-78.5 -91.5t-91 -75.5
t-99.5 -44t-104 3t-105 65.5q-2 2 -5.5 1t-3.5 -3q-1 -53 -3 -112t5 -112q0 -2 3.5 -1.5t3.5 -3.5q1 -14 10.5 -33.5t13 -35.5t-6.5 -24t-48 1q-23 6 -41.5 5t-36.5 -5t-36.5 -9.5t-41.5 -10.5z" />
    <glyph glyph-name="Q" unicode="Q" horiz-adv-x="849" 
d="M488 119q21 -6 45 3.5t39 26.5q4 5 2.5 11t-3.5 11q-4 5 -10.5 5.5t-10.5 4.5q-1 1 0.5 3t-0.5 2q-26 5 -48 0t-44 10q-15 10 -9.5 21.5t17.5 21t24.5 16l12.5 6.5q17 3 37.5 5.5t41.5 2.5t41 -3t35 -11q2 -1 7 -2.5t6 2.5q20 36 28 72.5t9 73t-2.5 72.5t-7.5 71
q-7 66 -44.5 127.5t-93 102.5t-122 55t-132.5 -15q-3 -2 -10.5 -5.5t-15 -9t-13.5 -10.5t-6 -10q-3 -47 -7 -100.5t-4.5 -107.5t3.5 -106.5t16 -97.5q3 -12 10.5 -21t-1.5 -18q-5 -4 -30 -12.5t-51 -17t-44.5 -14t-9.5 -4.5q89 10 147.5 -18.5t105.5 -78.5q24 -25 45 -41
t47 -23zM388 28q-36 -4 -64.5 8.5t-52.5 34t-46 48t-45 49.5t-48.5 39t-56.5 17q-15 0 -29.5 1t-24 4.5t-11.5 10.5t8 20q7 9 17 14t20.5 10t20 11t14.5 17q12 27 20 75.5t8.5 101t-7 100.5t-26.5 74q-7 9 -17.5 16t-19 12.5t-11.5 11t6 12.5q24 18 47.5 26.5t46 16.5
t42.5 20t38 36q25 34 67 61t90 44t96.5 23t85.5 -2q30 -6 59 -22t55 -37.5t48.5 -47.5t39.5 -52q62 -94 77.5 -205.5t-27.5 -217.5q-8 -19 -16.5 -37t-19.5 -35q-19 -28 -33 -42.5t-17.5 -25.5t6 -23t37.5 -33q9 -7 21.5 -4.5t21.5 4.5t12 -1t-7 -20q-20 -35 -58 -65
t-77 -44q-12 -4 -19 7.5t-13 27t-14.5 30t-24.5 15.5q-5 1 -8 -3t-7 -7q-1 -1 0.5 -3t-0.5 -4q-2 -1 -5 0.5t-5 -0.5q-22 -21 -44.5 -32.5t-46.5 -18t-50 -9.5t-53 -7z" />
    <glyph glyph-name="R" unicode="R" horiz-adv-x="975" 
d="M431 34q-33 12 -57 14t-45 0t-43.5 -5t-53.5 0q-6 0 -10 6.5t-3 11.5q1 12 7.5 27t13 30.5t11.5 31t3 29.5q-3 23 -0.5 51t7.5 47q1 7 2 42t2 75.5t1 73.5v36q2 33 -9 47.5t-26 23t-29 18t-17 33.5q0 2 12.5 5.5t28 7.5t29.5 6.5t16 3.5q23 7 49 25.5t52.5 34.5t52 22.5
t47.5 -8.5q8 -5 3 -12.5t-14 -16.5t-18.5 -18t-11.5 -18q-12 -62 -16 -127.5t-3 -131.5t4.5 -132t6.5 -130q0 -13 8 -25.5t16 -24t14 -22t2 -19.5q-3 -8 -13.5 -11.5t-18.5 -0.5zM834 24q-26 -1 -50 28t-45 74t-39 98.5t-31.5 103t-23.5 87t-15 49.5l-3 6t-5 6
q-18 -3 -27.5 -9.5t-15 -16.5t-9 -23t-9.5 -27q-8 -21 -29 -23.5t-29 13t10 50t88 86.5q20 15 47.5 26.5t55 24t50 29t31.5 42.5q17 45 3 78.5t-46 54.5t-75.5 30t-85.5 5q-35 -3 -69 -14.5t-66 -25.5q-16 -8 -56.5 -27.5t-90.5 -40t-103.5 -36.5t-96.5 -17t-68 19t-19 71
q3 21 10.5 23.5t17.5 -5t21 -20.5t20 -25q13 -16 31.5 -18.5t36 1.5t32.5 11.5t22 10.5q83 41 158 93.5t158 93.5q16 8 31.5 17t32.5 12q43 7 90.5 6t92 -15t80.5 -43.5t56 -78.5q2 -4 5.5 -12.5t8 -18t9 -17.5t7.5 -10q34 -16 27.5 -36t-30 -38t-52.5 -33t-39 -21
t-24.5 -12t-28 -13t-23 -15.5t-8.5 -18.5q1 -13 15 -21t20 -21q12 -27 23.5 -77t25.5 -102t33 -97t46 -61q5 -3 12.5 -2t15 2.5t13 1t6.5 -6.5q3 -26 -10 -45t-33 -36t-42 -34t-36 -38q-1 -2 -9 -2z" />
    <glyph glyph-name="S" unicode="S" horiz-adv-x="849" 
d="M371 28q-46 -1 -99.5 15t-103 44.5t-89 67t-57.5 83.5q-1 2 -3 0.5t-2 -0.5q-6 24 -6.5 50.5t7 51.5t22.5 46t40 33q21 10 55.5 6.5t64 -14t43 -26t-8.5 -30.5q-66 -43 -82.5 -77.5t22.5 -81.5q75 -92 171 -106t198 35q26 12 51 34.5t43.5 51t26.5 61.5t1 65
q-6 25 -13.5 50t-19.5 47q-9 15 -21 27t-26 19q-38 18 -67 27t-54 6.5t-49.5 -17t-53.5 -41.5q-5 -4 -5.5 -11.5t-0.5 -15t-1.5 -13.5t-7.5 -6q-65 -6 -129 17.5t-110.5 69t-67 108.5t2.5 135q10 32 30 63t46.5 57.5t57.5 45.5t63 27q70 16 139.5 6t137.5 -42q5 -2 21.5 -8
t20.5 -8q19 -9 39 -18t42.5 -11.5t47.5 5.5t52 32q15 14 19.5 9t2 -20.5t-10.5 -38t-18 -44.5t-19 -40.5t-15 -25.5q-22 -29 -46.5 -33.5t-48.5 -11.5q-12 -5 -29.5 -0.5t-28.5 6.5q-23 5 -54 18.5t-63 30.5t-62 35t-50 33q-58 42 -113 34t-78 -61q-24 -54 -2 -93.5
t67.5 -65t102 -37.5t101.5 -11q14 1 29 1t28 8q40 25 83.5 38.5t86 12t80.5 -19.5t66 -55q57 -74 69 -147t-29 -158q-35 -72 -76 -115.5t-93.5 -67.5t-118 -32t-148.5 -9z" />
    <glyph glyph-name="T" unicode="T" horiz-adv-x="923" 
d="M478 28q-47 2 -90.5 18.5t-83.5 38.5q-69 35 -110.5 92.5t-59 125t-11.5 140t32 138.5q12 29 32.5 58.5t46.5 56.5t55.5 48.5t59.5 33.5q2 1 0 3.5t-3 3.5q-40 14 -76.5 23.5t-69 7.5t-61 -18t-51.5 -52q-7 -11 -12.5 -29.5t-12 -33.5t-15 -21.5t-20.5 5.5
q-26 25 -14.5 63t41.5 75t68 69t65 45q33 17 69.5 22t73.5 4.5t73.5 -4.5t69.5 -7q2 0 0 -2.5t0 -2.5q10 -1 22 -4t22 -6q44 -11 90 -19.5t92.5 -11.5t92.5 2.5t90 23.5q12 5 18.5 2t9 -10.5t2 -18t-2.5 -20.5q-3 -12 -11.5 -24t-22.5 -16q-15 -4 -33 -26.5t-36.5 -52
t-38 -62t-37.5 -57.5t-34 -37.5t-28 -2.5q-13 11 -1.5 33.5t28 46.5t29 43t1.5 22q-73 23 -151.5 36.5t-152.5 -2.5q-77 -17 -117.5 -62t-52.5 -104.5t2.5 -127t48.5 -128.5t83.5 -109.5t108.5 -70t124.5 -9.5t130.5 71q7 6 14.5 13.5t15 12t15 5t14.5 -6.5q25 -26 4.5 -60
t-59 -65.5t-81.5 -55t-64 -28.5q-32 -7 -65 -12.5t-67 -3.5z" />
    <glyph glyph-name="U" unicode="U" horiz-adv-x="902" 
d="M718 21q-14 0 -29 15t-28.5 34.5t-25 38t-19.5 25.5q-4 3 -4 9.5t0.5 13.5t-0.5 12t-6 6q-22 3 -44.5 -10t-45 -32.5t-46 -41t-48 -36t-50.5 -17t-54 16.5q-12 9 -31.5 22.5t-40 28.5t-38.5 29t-28 23q-40 40 -57.5 78t-22 77t-1 81t6.5 91q2 29 7.5 69t8.5 81.5t-1 78.5
t-21 59q-7 9 -16.5 16t-20.5 6q-25 -2 -40.5 1.5t-10.5 25.5q2 9 10 16.5t17.5 13.5t20 11.5t17.5 11.5l13 13l23.5 23.5t24 22.5t15.5 11q15 2 29 -4q2 0 1.5 -2.5t2.5 -4.5q2 -1 6 -1t7 -2q1 -1 0 -2.5t0 -2.5q31 -16 51 -44.5t29 -61.5q12 -41 12 -85t-4.5 -88.5t-10 -89
t-5.5 -87.5q0 -53 6.5 -89.5t22.5 -66.5t42.5 -57.5t66.5 -62.5q28 -24 55.5 -26t52 10t43.5 34t30 46q17 37 22.5 75.5t5.5 78.5t-2.5 81t-1.5 81v31t-0.5 43.5t-0.5 42.5t1 27q6 40 0.5 82.5t-23.5 77.5q-5 10 -14 20t-15.5 19.5t-6.5 17.5t13 13q22 8 47 4t51.5 -9
t52 -5.5t47.5 15.5q13 9 24.5 8.5t19.5 -15.5q5 -9 2.5 -16.5t-7.5 -14.5t-11 -15t-9 -18q-20 -73 -24 -151t-1 -157t8 -158t3 -154q0 -9 6.5 -22.5t10.5 -23.5q1 -1 3 0.5t2 -0.5q1 -10 9 -17t17 -12q1 -1 0 -2.5t0 -2.5q15 -4 31.5 -7t32.5 -10q7 -3 8.5 -14t-3.5 -15
q-16 -16 -35.5 -36t-41 -37t-45.5 -29.5t-48 -13.5v1z" />
    <glyph glyph-name="V" unicode="V" horiz-adv-x="799" 
d="M383 35q-7 -1 -13.5 2.5t-7.5 8.5q-10 61 -29 116.5t-41.5 108.5t-46 105t-44.5 106q-10 26 -25.5 66.5t-34.5 81.5t-39.5 75t-40.5 47q-5 3 -13 2t-15.5 -2.5t-13 -1t-7.5 6.5q-6 24 11 44.5t42.5 38t54.5 33.5t47 31q14 12 25.5 24t31.5 2q8 -4 9.5 -15.5t-1.5 -19.5
q-6 -13 -17 -22q-1 -2 -3.5 -1.5t-2.5 -0.5q-1 -20 6 -40.5t17 -40t21 -38.5t19 -37q28 -63 59.5 -138t56.5 -139q2 -6 12 -33t22.5 -60t25.5 -63t21 -41q4 -4 8 0q42 49 83.5 108.5t67 123.5t26 130t-39.5 128q-14 22 -30.5 37t-44.5 18q-9 1 -21 -4.5t-24.5 -11t-23 -8
t-15.5 4.5q-10 14 -7 25t13.5 20t25.5 16.5t28 13.5q4 2 18.5 18t32.5 34t34.5 32t23.5 12q68 -24 105 -70t50.5 -103t6.5 -120t-29 -122q-19 -53 -53.5 -105t-75.5 -101t-83 -96t-76 -89q-10 -12 -18.5 -28.5t-18 -31.5t-21.5 -26t-28 -11z" />
    <glyph glyph-name="W" unicode="W" horiz-adv-x="1149" 
d="M774 38q-10 0 -22 -1.5t-14 6.5q-19 57 -37.5 122t-38.5 120q-2 6 -10.5 22.5t-19 37t-20 39.5l-14.5 29t-15 25.5t-16 22.5q-5 5 -15 -3.5t-21 -21.5t-20.5 -25.5t-11.5 -15.5q-59 -83 -94 -169t-67 -180q-4 -10 -19 -6t-25 6q-7 1 -7 9q-5 42 -22 89t-35 80
q-16 29 -38 55.5t-44.5 52.5t-44 51.5t-38.5 52.5q-52 84 -54 161t28 141.5t84 111t114 69t116.5 17t93.5 -47.5q7 -8 17 -15.5t18 -15.5t13 -18.5t3 -24.5q0 -3 -23 -17.5t-51.5 -30t-54.5 -28.5t-32 -14q-26 -3 -31.5 3.5t-2.5 17.5t9 24.5t2 24.5q-14 43 -54 57.5
t-81 -2.5q-2 -1 -8 -6.5t-13 -12t-13.5 -13.5t-9.5 -11q-31 -46 -25 -98t31.5 -102t62.5 -94t67 -74q7 -7 20 -29t27.5 -45.5t26.5 -41.5t17 -17q2 0 22 26t44 58.5t46 61.5t27 36q11 14 12.5 22.5t-3 14.5t-12.5 11.5t-15 13.5q-2 3 -9.5 9t-16 13l-17 14t-12.5 12t9.5 19
t33 28.5t38.5 25.5t27 11q5 0 10.5 4.5t10.5 0.5q16 -10 29 -29t29 -27q1 -1 0 -3t0 -2q13 -1 24 8t21.5 19.5t22 17.5t24.5 3q12 -4 20 -19.5t1 -26.5q-4 -6 -15.5 -13.5t-23 -13.5t-19 -10.5t-1.5 -5.5q5 -1 18.5 -20t31 -47.5t37 -63t35 -67t25.5 -57.5t8 -36
q-1 -2 4.5 -2t8.5 2q11 11 18 23t16 23q10 11 24 28t26 30q41 42 59 85t19 87.5t-12 89.5t-35 91q-4 9 -14.5 19t-24 16.5t-28 7t-27.5 -8.5q-7 -4 -15.5 -1.5t-13.5 10.5t-6.5 19.5t4.5 19.5q6 7 16 14.5t21.5 15t22 13.5t16.5 10q17 11 33 26t31 28q8 8 20.5 0.5t25.5 -21
t24.5 -28t17.5 -22.5q8 -9 17 -23t17.5 -29.5t16 -31t12.5 -26.5q20 -46 20 -87t-13.5 -79t-36 -73t-46.5 -70q-24 -34 -56 -68t-63.5 -68.5t-59 -71t-41.5 -75.5q-11 -30 -18 -61.5t-18 -61.5q-2 -4 -6 -4.5t-6 -0.5z" />
    <glyph glyph-name="X" unicode="X" horiz-adv-x="1067" 
d="M184 29q-20 2 -52.5 12t-61.5 26.5t-47.5 38t-10.5 45.5q2 7 26 26t52.5 37t52 30t25.5 6q12 -40 35 -59.5t49 -21.5t50.5 12t40.5 40q12 21 40 58.5t54 77.5t42 75.5t5 51.5q-20 28 -34 59t-33 58q-15 21 -36.5 56.5t-48.5 67.5t-59 51t-69 7q-17 -6 -37.5 -13t-36 -7.5
t-23.5 8t0 34.5q5 15 22 28t38 24t41 20.5t30 17.5q8 7 16.5 16.5t17.5 18t18.5 14t20.5 2.5q65 -17 101 -49.5t61 -74.5t48 -91t60 -100q4 -4 6 0q37 53 68.5 109.5t72.5 104.5q30 36 50 57.5t42 27.5t51.5 -3.5t78.5 -34.5q11 -6 25.5 -3.5t28.5 6.5q5 2 5.5 10.5t6.5 9.5
q10 4 19.5 4.5t13.5 -10.5q6 -19 -1 -40t-20.5 -41.5t-29.5 -38t-28 -31.5q-4 -4 -21.5 -14t-24.5 -11q-27 -1 -53.5 10.5t-52 18.5t-48.5 0.5t-42 -42.5q-2 -2 -5 -0.5t-3 0.5q-11 -20 -28.5 -38t-33.5 -36.5t-26.5 -38t-8.5 -43.5q3 -31 21.5 -77.5t48 -95.5t69 -95.5
t84 -78t92 -42.5t93.5 10q3 1 9.5 2t8.5 -4q4 -7 7 -16t-4 -16q-36 -39 -89.5 -73t-105.5 -47q-45 -11 -81.5 6t-66.5 50.5t-54 78.5t-45 89.5t-39.5 83.5t-36.5 62q-2 3 -14.5 -13.5t-30 -42.5t-37 -57.5t-36.5 -58.5t-28 -45t-11 -19q-13 -22 -34.5 -47t-48 -46t-55 -34
t-55.5 -10v1z" />
    <glyph glyph-name="Y" unicode="Y" horiz-adv-x="829" 
d="M239 -133q-68 9 -97.5 16.5t-32 22.5t14.5 41.5t42 74.5q7 14 9 26t12 22q3 3 11.5 3.5t9.5 -5.5q3 -39 29 -58t59 -21t65 12t47 42q1 1 3.5 -0.5t3.5 0.5q7 18 12.5 26.5t5 13.5t-9 9.5t-29.5 14.5q-51 26 -81.5 69.5t-49.5 95t-32.5 106t-30.5 102.5q-4 10 -17.5 54
t-30.5 94.5t-34.5 94.5t-28.5 54q-13 11 -31 10t-29.5 -5t-13.5 -5v7q-11 0 3 21.5t37 48t49 51t40 30.5q4 2 13 -0.5t18 -7.5t17 -10t12 -7q30 -15 51.5 -60.5t37.5 -100t27 -108.5t20 -86q12 -44 23.5 -90.5t28 -90t40.5 -82t62 -66.5q4 -3 9 -7.5t9 -0.5q44 44 90.5 109
t73.5 136t22.5 140.5t-62.5 121.5q-38 35 -43.5 76t13.5 73.5t57 48.5t87 1q12 -4 24.5 -15t19 -25t4.5 -28t-18 -23q-2 -1 -5 0t-3 3q-4 18 -15 28.5t-21 11.5t-16 -9.5t0 -32.5q4 -17 23 -24t33 -18q48 -40 43 -111t-41.5 -158t-95 -180.5t-118.5 -177.5t-111.5 -150.5
t-74.5 -97.5q-7 -10 -26 -19.5t-40.5 -16.5t-42 -11t-29.5 -3h-1z" />
    <glyph glyph-name="Z" unicode="Z" horiz-adv-x="903" 
d="M595 25q-38 -3 -74 5.5t-72 22t-71.5 28t-71.5 22.5q-37 9 -63.5 3.5t-50.5 -17t-49.5 -26.5t-60.5 -26q-20 -6 -8.5 17.5t41.5 65t72.5 93.5t84.5 103l77 93.5t50 63.5q2 4 -4 4t-14 -2l-16 -4t-9 -3q-11 -7 -25 -22.5t-28 -29t-27 -20.5t-22 2q-20 20 -3.5 49.5t48 58
t67 51t53.5 28.5q22 7 47.5 2t45.5 8q30 21 54.5 45.5t47 51t44.5 53.5t46 51q2 1 4.5 0.5t4.5 0.5q5 7 0 10q-4 2 -8 1.5t-8 -2.5q-51 -22 -117 -42.5t-135.5 -31.5t-136.5 -7t-121 32q-3 1 -2 3.5t0 2.5q-7 1 -12.5 10.5t-10 20.5t-9 21t-9.5 11q-24 5 -38 -15t-25 -42
t-23 -35t-33 6q-23 22 -10 48.5t42 52t64 48.5t54 37q23 16 67 16.5t92 -7.5t91.5 -19.5t65.5 -19.5q5 -2 15 -4q50 -11 93 -13.5t82.5 2.5t78.5 17.5t81 31.5q5 2 14.5 3.5t13.5 -5.5q15 -24 -1.5 -54t-49 -63t-75 -66.5t-78 -64.5t-58 -57.5t-16.5 -45.5q6 -18 24 -28
t35.5 -19.5t27.5 -21.5t0 -33q-10 -20 -29 -42.5t-40.5 -41t-43.5 -29t-37 -6.5q-9 3 -13.5 23t-10 40t-14 31t-26.5 -4q-35 -30 -66.5 -63.5t-61.5 -68t-59 -69.5t-61 -67q-2 -2 4 -1t10 3q52 23 120 44.5t137.5 24.5t133.5 -19t108 -86q9 -14 24 -6.5t30 25t28 39.5t19 37
q4 11 13 20.5t18.5 13.5t17.5 1t11 -18q10 -51 -21.5 -92.5t-80.5 -71t-103.5 -47t-91.5 -20.5h2z" />
    <glyph glyph-name="underscore" unicode="_" horiz-adv-x="350" 
d="M-27 -17h404v-29h-404v29z" />
    <glyph glyph-name="grave" unicode="`" horiz-adv-x="159" 
d="M136 750q-18 1 -43.5 28.5t-47 61t-31.5 63.5t4 36q31 14 54 6t38.5 -29t24.5 -49t12 -54t0 -44t-11 -19z" />
    <glyph glyph-name="a" unicode="a" horiz-adv-x="616" 
d="M296 144q7 -2 20 -0.5t26 5t23 10.5t11 16q6 44 10.5 76t11 60.5t17 57.5t28.5 66q4 8 -3 7t-19 -5t-25.5 -7.5t-21.5 -1.5q-33 10 -57 30.5t-46 32.5t-45.5 6.5t-56.5 -46.5q-2 -3 -2.5 -5.5t-2.5 -5.5q-5 -8 -8 -25.5t-5 -35.5t-2.5 -31.5t-0.5 -14.5q-1 -37 11 -68.5
t32 -56t47.5 -41t57.5 -23.5zM467 24q-7 -2 -20 10t-18 19q-1 1 -3 0t-2 0q-2 7 -7.5 9.5t-8.5 6.5q-2 3 0 6.5t0 4.5q-3 1 -6 6.5t-5.5 12t-5 11.5t-5.5 5q-23 2 -43.5 -13t-40.5 -33t-41 -32t-45 -8q-92 23 -139.5 63t-60.5 89.5t2.5 103t47.5 103.5t76 92t89 68
q5 3 21 11.5t34 18t32.5 17t16.5 7.5q17 1 31.5 -5t28 -15.5t26.5 -20t27 -18.5q21 -12 34.5 -11t36.5 8q9 3 16.5 10t15.5 12q1 1 0 2.5t0 2.5q7 5 17.5 7.5t12.5 -5.5q4 -16 -5.5 -31t-23 -30t-26 -31t-15.5 -34q-6 -30 -12.5 -71.5t-6.5 -83.5t9 -79.5t35 -59.5
q6 -5 15 -6.5t18 -2.5t18 -2.5t15 -7.5q4 -4 2.5 -13t-7.5 -13q-31 -20 -64 -43.5t-67 -36.5h1z" />
    <glyph glyph-name="b" unicode="b" horiz-adv-x="545" 
d="M198 34q-15 10 -41 23t-41 29q-24 27 -35.5 65t-16 82t-5 91.5t-0.5 92.5q0 33 3.5 75.5t4 86.5t-5.5 84.5t-25 68.5q-24 36 -25 51t12 21t33.5 10.5t38.5 19.5q6 5 16.5 12.5t21.5 14.5t21.5 12t15.5 5q24 1 28.5 -4t-0.5 -13.5t-13.5 -21t-8.5 -26.5q-1 -35 -8 -77.5
t-12.5 -84t-4 -78t17.5 -58.5q9 -13 31 3t50.5 38t60.5 38t62 4q53 -21 92 -63.5t57 -95.5q27 -75 1 -135.5t-78.5 -109t-117 -87t-114.5 -70.5q-12 -6 -16 -3h1zM280 136q40 2 70.5 21t47 50.5t19 72.5t-12.5 86q-14 41 -39 75.5t-56.5 51.5t-67 11t-69.5 -46
q-18 -20 -22 -46.5t0 -56t12 -59t16 -55.5q14 -49 34 -78t68 -27z" />
    <glyph glyph-name="c" unicode="c" horiz-adv-x="464" 
d="M213 42q-95 25 -146 90t-56 164q-2 53 12.5 105t44 94t74 68.5t102.5 29.5q19 1 38 -7t38 -16.5t37 -14.5t36 0q47 15 56 2t-3.5 -34.5t-40 -44t-52.5 -27.5q-24 -5 -44.5 1t-40 15t-40 18.5t-44.5 11.5q-53 5 -73.5 -20.5t-19.5 -64.5t17 -83.5t36 -75.5q9 -13 33 -26.5
t51.5 -24t52.5 -17t34 -5.5q14 2 25.5 7.5t20.5 10.5q9 6 22.5 17.5t27 20.5t24 11t13.5 -12q8 -40 1 -69.5t-26.5 -51t-49 -37.5t-66.5 -29q-23 -8 -47 -10t-47 4z" />
    <glyph glyph-name="d" unicode="d" horiz-adv-x="573" 
d="M276 160q34 -2 64 4t45 37q11 21 15.5 51t4 62t-5 62t-12.5 51q-12 31 -41.5 47t-64.5 20t-70.5 -3.5t-58.5 -24.5q-2 -2 0 -5t0 -5t-3.5 -0.5t-2.5 0.5q-4 -4 -7.5 -10t-5.5 -11q-21 -58 -16.5 -103t35.5 -94q8 -13 23 -26t32.5 -24.5t36 -19t32.5 -8.5zM409 36
q-5 -2 -10.5 -1t-8.5 6q-10 13 -7.5 32.5t1.5 37.5q0 1 -2 3t-3 1q-19 -12 -38 -27t-38.5 -27t-40.5 -18t-45 -1q-42 10 -83 34t-66 61q-34 49 -51 103.5t4 117.5q11 33 44.5 76t76.5 80.5t90 61.5t85 20q7 -1 18.5 -7t22.5 -12t20.5 -9t11.5 3q14 39 9.5 82t-7.5 85
q-1 3 -3.5 2.5t-3.5 0.5q-1 10 -11 10t-15 6q-5 5 -4.5 13.5t4.5 14.5q6 8 19 11.5t28 6.5t29.5 8.5t21.5 18.5q4 6 17.5 13t29.5 12t30.5 7.5t20.5 0.5q7 -3 7.5 -13t-4.5 -15q-18 -16 -26 -32t-10 -31.5t-2 -32t-1 -34.5q-12 -143 -8.5 -287.5t8.5 -289.5q0 -13 8.5 -25
t17 -23t11.5 -21.5t-7 -21.5q-10 -10 -22 -7.5t-26 9.5t-28.5 12.5t-29.5 1.5q-10 -2 -17.5 -8.5t-16.5 -8.5z" />
    <glyph glyph-name="e" unicode="e" horiz-adv-x="494" 
d="M237 37q-59 -3 -104 23t-74 71t-40.5 102t-5 115t33 112t74.5 92q35 27 62.5 36.5t55 7t57.5 -14t70 -25.5q2 -1 0.5 -2.5t-0.5 -2.5q16 -9 31 -25t33 -22q12 -4 24 -8.5t20 -10t9.5 -12.5t-8.5 -16q-36 -33 -81 -56t-91.5 -44t-91 -44t-79.5 -56q-9 -9 -2.5 -18.5
t20.5 -19t31.5 -17.5t29.5 -14q4 -2 18.5 -5t31 -6t31 -5t18.5 -1q2 1 1 3t1 2q20 4 33.5 14.5t25.5 23.5t25 26t32 23q26 13 28 -7t-8.5 -51t-27.5 -62.5t-29 -40.5q-20 -16 -41 -29.5t-44 -23.5q-16 -7 -33.5 -9t-35.5 -3zM107 305q12 0 27 7t29.5 17t28 20t22.5 16
q20 13 52 25.5t47 27.5q1 1 3 -0.5t4 0.5q2 6 -3 9q-18 9 -30 23.5t-22 29.5t-21 27.5t-28 18.5q-45 15 -71.5 -4t-39 -53t-14 -75t3.5 -71q1 -5 4 -12t8 -6z" />
    <glyph glyph-name="f" unicode="f" horiz-adv-x="395" 
d="M41 35q-11 6 -10.5 13.5t5 16t11 18t8.5 19.5q16 78 11 160.5t-4 163.5q0 6 -4 8q-6 2 -8 0q-4 -5 -6 -12t-6 -11q-4 -3 -8 -3t-8 1q-11 2 -11 10q0 22 5.5 36.5t13.5 27.5t16 27.5t13 36.5q12 57 20.5 104.5t26 86t50.5 68.5t94 52q24 9 54.5 9.5t52.5 -8.5t27 -30
t-22 -55q-8 -11 -15 -27.5t-17 -26.5q-3 -3 -9.5 -3.5t-7.5 3.5q-2 11 -24 27.5t-46 21.5t-41.5 -9t-10.5 -65q2 -17 -1 -34t-6 -34.5t-3.5 -34.5t7.5 -33q4 -8 22 -10t39 0.5t40 8.5t24 14q2 3 17 16.5t22 15.5q4 2 12 1t9 -7q3 -16 -4 -39t-19 -45t-27 -40.5t-29 -25.5
q-33 -17 -54.5 -16.5t-34 -2t-17.5 -18t-5 -65.5q0 -19 -2.5 -59t-2 -83.5t8 -81t27.5 -51.5q4 -4 3.5 -11.5t-3.5 -13.5q-2 -4 -19.5 -2.5t-39 5t-40.5 6t-25 -0.5q-3 -2 -10 -6t-14.5 -7.5t-14.5 -5.5t-10 0z" />
    <glyph glyph-name="g" unicode="g" horiz-adv-x="577" 
d="M191 -204q-18 -1 -35 10t-32 16q-75 31 -92.5 54.5t-3.5 44.5t47 42.5t58 48.5q3 2 9 -1t8 -8q13 -54 49 -82.5t79.5 -31t85.5 22t67 75.5q10 21 9 41t-6.5 40.5t-13 40.5t-11.5 40q-1 2 -5 2t-5 -2q-13 -29 -41.5 -56t-65 -45t-76.5 -23t-76 8q-28 11 -51.5 34t-40.5 51
t-26.5 57t-10.5 52q-1 17 0.5 42t7 50.5t15.5 49t26 36.5q25 21 44 39t38 35.5t40 35.5t49 39q35 26 72.5 25.5t74.5 -7t72 -9.5t65 17q28 20 29.5 -1.5t-29.5 -82.5q-15 -29 -18 -60.5t2.5 -65t17.5 -67.5t26 -68q24 -59 24 -110t-20 -96.5t-57.5 -87t-88.5 -80.5
q-45 -35 -100 -51t-110 -14zM267 136q59 -4 88 27.5t19 102.5q-5 36 2 63t20 50t28 46t25 51q1 2 -2.5 2t-4.5 -2q-6 -8 -28 -17.5t-38.5 -15l-19.5 -6.5q-22 7 -44 15t-45 14q-51 14 -79 -5t-38.5 -54t-7.5 -76.5t13 -72.5q15 -50 39 -84t73 -38z" />
    <glyph glyph-name="h" unicode="h" horiz-adv-x="545" 
d="M95 -174q-11 -4 -16 1q-6 9 -8.5 21.5t8.5 17.5q55 29 107 43.5t94 39t72.5 71.5t42.5 141q8 62 -4 127.5t-42 123.5q-17 34 -39 49.5t-56 -14.5q-8 -7 -18.5 -10.5t-19.5 -8.5q-1 -1 0 -3t0 -2q-28 -9 -36 -23.5t-7.5 -32t4.5 -37t1 -38.5q-4 -23 -6.5 -53t-1 -61
t7 -60.5t17.5 -50.5q5 -7 6.5 -19t-6.5 -15q-21 -6 -40 -4.5t-38.5 4.5t-40.5 4t-46 -5q-11 -4 -16 3q-6 9 -2.5 19.5t10.5 22l14 23t7 22.5l6 254t6 253v17t-1 33.5t-3.5 35t-6.5 21.5q-14 15 -23.5 24.5t6.5 22.5q10 9 26 13.5t32.5 8.5t31.5 9t23 14q5 6 22.5 16.5
t34.5 16.5t27 2.5t0 -25.5q-4 -10 -10.5 -15.5t-13 -10.5t-11.5 -11.5t-7 -18.5q-10 -77 -14 -159.5t8 -159.5q2 -7 12 -1t18 10q2 2 0.5 4.5t-0.5 3.5q35 19 69 42t68 41q1 0 0 2t0 2q6 4 13 10t13.5 10.5t13 6.5t11.5 -3q57 -52 91 -112.5t45 -143.5q14 -95 -17.5 -184
t-93.5 -159.5t-146.5 -115t-177.5 -50.5z" />
    <glyph glyph-name="i" unicode="i" horiz-adv-x="271" 
d="M152 628q-23 -2 -33.5 25t-10.5 61.5t10 65.5t28 37q59 21 82 -4.5t19 -66t-30 -78t-65 -40.5zM228 37q-30 5 -71.5 8t-71.5 -4q-8 -1 -19.5 -1t-13.5 8q-3 10 0 18.5t8 17t11 17.5t9 18q22 78 19 166t-16 167q-2 16 -8.5 21.5t-15.5 6.5t-20 1t-22 6q-6 3 -6.5 11
t2.5 12q12 14 29.5 31t37 30.5t40 21t37.5 3.5q39 -10 53.5 -45.5t17 -80.5t-1.5 -91.5t-2 -79.5q0 -16 -1.5 -47t-1 -65.5t6.5 -65.5t23 -48q15 -15 7 -27.5t-30 -8.5z" />
    <glyph glyph-name="j" unicode="j" horiz-adv-x="284" 
d="M42 -180q-8 2 -15.5 7t-12 11.5t-4 12.5t9.5 8l49 10.5t36 12.5t22.5 23t8.5 42q1 23 -14.5 50.5t-20.5 51.5q-7 35 -4 71t4 71q0 25 5.5 67.5t6 86t-7.5 80.5t-34 52q-8 5 -19 2t-17 2q-15 11 -11 20t16.5 16.5t27.5 14t22 12.5q55 46 92.5 42.5t51.5 -68.5
q12 -53 12 -110t-4 -115t-8 -115.5t0 -111.5q4 -63 4 -108.5t-16.5 -76t-55 -46.5t-111.5 -20q-4 -1 -7 -4t-6 -4v13zM114 615q-8 0 -8 3q-1 23 9 55t28 61t42 49t50 19q29 -2 35.5 -15.5t-2 -34t-27.5 -43.5t-42 -43.5t-46 -34.5t-39 -16z" />
    <glyph glyph-name="k" unicode="k" horiz-adv-x="538" 
d="M410 26q-29 9 -46.5 29.5t-27.5 46.5t-15 52.5t-11 47.5q-40 135 -129 43q-11 -11 -14.5 -28t-2.5 -36t4 -38t6 -34q2 -10 8 -18.5t11 -16t7.5 -15t-3.5 -15.5t-16.5 -7t-22 5.5t-23.5 10t-21 7.5q-11 2 -23 -3t-23.5 -10.5t-22 -8.5t-19.5 3q-11 7 -8.5 17t9.5 21t15 23
t8 23q6 142 13 286.5t-8 287.5q-1 11 -9.5 17.5t-17.5 12t-14.5 11.5t-0.5 17q6 12 22 21.5t34.5 17.5t36 15t26.5 16q12 12 28.5 21.5t30.5 12t23.5 -4.5t7.5 -29q0 -6 -5 -9t-10.5 -5.5t-10 -5.5t-5.5 -9q-13 -84 -18.5 -170t8.5 -168q2 -11 19.5 -2.5t38 23.5t39.5 30.5
t24 18.5q15 9 26.5 18t23 15.5t24.5 9.5t31 -1q7 -2 7.5 -6.5t-2 -11t-4.5 -14.5t-1 -16q6 -31 14 -51.5t10 -36.5t-6 -30.5t-35 -32.5q-6 -4 -16.5 -4.5t-9.5 -7.5q1 -16 19.5 -28.5t26.5 -28.5q9 -19 14 -42t10.5 -46t13 -44t21.5 -37q8 -10 24.5 -7t27.5 -5q5 -5 6 -15
t-6 -14q-12 -8 -25.5 -21.5t-28 -25.5t-29 -18.5t-28.5 -2.5zM175 310q4 -5 20.5 -0.5t37.5 16t43 28t35 36t14 40t-20 40.5q-5 5 -12 -1t-14 -11q-12 -8 -26 -13.5t-27.5 -11t-25.5 -13t-19 -19.5q-4 -7 -7.5 -19t-5 -25.5t-0.5 -26t7 -20.5z" />
    <glyph glyph-name="l" unicode="l" horiz-adv-x="239" 
d="M26 36q-15 6 -15.5 16t5.5 22.5t14 25t10 22.5q18 103 14 208.5t0 208.5q1 24 6.5 51.5t7.5 53.5t-2.5 49t-22.5 38q-22 19 -18 31t19.5 20.5t34.5 14t26 10.5q13 9 27.5 20.5t30 20.5t30.5 12.5t29 -2.5q9 -4 6 -13t-11 -19.5t-16.5 -21.5t-9.5 -20q-15 -109 -18 -230
t7 -230q4 -52 -3.5 -104t1.5 -104q2 -8 8.5 -17t13 -18.5t10 -19t-0.5 -16.5q-7 -13 -24 -10t-38 9.5t-44.5 9.5t-43.5 -11q-7 -5 -16 -8t-17 1z" />
    <glyph glyph-name="m" unicode="m" horiz-adv-x="878" 
d="M767 22q-7 -2 -17 6q-34 26 -51 44.5t-23 40t-6 50.5v75q0 18 4 61t1.5 86.5t-16 75t-48.5 27.5q-9 -1 -24.5 -7t-31 -14.5t-27.5 -18.5t-14 -18q-6 -34 -11 -82t-5 -99t7 -99.5t25 -81.5q2 -3 2.5 -8.5t-1.5 -9.5q-6 -12 -16 -11q-34 9 -54.5 15t-53.5 -4
q-35 -10 -44.5 -2t-7 25t10.5 39t9 41q1 15 3.5 48.5t3.5 74.5t-0.5 82.5t-9.5 73.5t-24 48t-42 5q-22 -9 -51 -25t-34 -44q-5 -37 -10 -80.5t-5.5 -87.5t5 -85.5t21.5 -74.5q4 -8 12 -20.5t4 -18.5q-7 -10 -19 -9t-25.5 6.5t-27.5 10.5t-26 4q-18 -1 -35 -12t-34 -8
q-12 2 -14 8t0.5 14t7.5 17.5t8 18.5q4 16 9 47.5t8 70.5t3 81.5t-4.5 80t-14.5 65.5t-28 38q-5 3 -12 1.5t-13.5 -3t-11.5 -2t-7 4.5q-5 12 8 32.5t33.5 39.5t43.5 32t39 11q10 -2 18 -9.5t15 -14.5q6 -5 13.5 -17.5t15 -27t13.5 -28.5t10 -22q2 -5 6.5 0.5t7.5 6.5
q13 3 31 21.5t38.5 38.5t42.5 36t44 15q9 -1 19 -8q1 -1 0 -2.5t0 -2.5q19 -12 30 -25.5t20 -26.5t18.5 -25t25.5 -21q13 -7 30 2.5t36 25.5t39.5 34.5t41 30t40.5 11t38 -22.5q9 -10 21.5 -25t25 -30.5t21.5 -30t10 -23.5q4 -38 2.5 -75.5t-4 -75.5t-3.5 -76.5t5 -76.5
q1 -12 3.5 -17t8 -7t16 -3.5t27.5 -8.5q12 -4 1 -18.5t-30 -30.5t-39 -30t-27 -17z" />
    <glyph glyph-name="n" unicode="n" horiz-adv-x="621" 
d="M512 34q-35 4 -60.5 24.5t-31.5 56.5q-6 32 -4.5 65t4.5 65.5t6 65.5t1 65q0 5 -1.5 13.5t-2.5 11.5q-7 10 -14.5 25.5t-15.5 29.5t-19 23.5t-26 6.5q-34 -5 -69.5 -23.5t-46.5 -49.5q-10 -28 -14 -76.5t-2 -100.5t11.5 -98t26.5 -70q6 -8 0 -22q-3 -6 -13 -6.5t-17 1.5
q-24 8 -44 5.5t-38.5 -6.5t-35.5 -5t-35 11q-10 7 -7.5 15.5t10 18.5t15.5 20t9 21q2 18 6.5 52t7.5 75t2.5 83.5t-8.5 77.5t-26.5 58t-50.5 24q-24 1 -18 15t27 32t49 35.5t47 26.5q11 5 24 -4.5t26 -25t23 -32.5t15 -27q4 -8 2.5 -20.5t6.5 -16.5q7 -4 34 11.5t57.5 36.5
t56.5 41.5t33 27.5q6 4 18 0q1 0 -0.5 -2t0.5 -3q38 -32 68.5 -63.5t47.5 -65.5q16 -32 15 -70.5t-6.5 -80t-8 -84t11.5 -81.5q2 -7 8.5 -8.5t14 -1.5t14.5 -1t11 -6q9 -13 1 -29.5t-24.5 -30.5t-36.5 -23t-34 -7z" />
    <glyph glyph-name="o" unicode="o" horiz-adv-x="523" 
d="M247 37q-32 5 -66.5 21t-65 40t-55 54t-35.5 62q-16 46 -14.5 89t15.5 82t38.5 75t55.5 68q64 67 141 66.5t153 -63.5q26 -22 45 -50.5t32 -57.5q38 -81 9 -168q-26 -79 -78.5 -132t-129.5 -81q-22 -8 -45 -5zM333 150q61 6 80.5 40t10.5 79.5t-41 93.5t-74.5 81.5
t-89.5 45.5t-86 -16q-1 -1 0.5 -3.5t-0.5 -2.5q-29 -1 -34.5 -29t3 -63.5t24 -69t28.5 -46.5l35 -35t43 -38t48.5 -29t52.5 -8z" />
    <glyph glyph-name="p" unicode="p" horiz-adv-x="567" 
d="M203 -204q-13 1 -24.5 8.5t-21.5 12.5q-18 10 -37.5 5t-27.5 -8q-14 -3 -27 -5.5t-24 2.5q-8 4 -5.5 13t9.5 19.5t14 20t9 14.5q12 50 17 103.5t-9 103.5q-2 7 -7 4t-12 -8.5t-15 -9.5t-16 0q-12 7 -6 20t18.5 28t25.5 29t15 23q4 20 8.5 67.5t2 97t-16.5 88t-47 39.5
q-5 0 -10 2t-5 6q-2 17 12.5 37t35.5 36.5t44 26.5t38 8q17 -2 27.5 -12.5t18 -25.5t12.5 -32t9 -32q0 -1 2.5 -3t4.5 -1q21 10 40 26l38 32t39 29.5t42 18.5q23 5 52 -17t55.5 -56t46.5 -71t26 -61q5 -23 0 -62.5t-16.5 -81t-28.5 -76t-35 -47.5q-20 -14 -43 -31.5
t-48.5 -32.5t-52 -23t-53.5 -2q-18 4 -32 17t-31 15q-9 1 -12 -24t-3 -58t2.5 -65.5t6.5 -47.5q2 -11 6.5 -17.5t8 -12.5t5.5 -13t-1 -18q-1 -7 -9.5 -2.5t-14.5 4.5zM350 90q17 -5 37 5q39 18 57.5 51.5t20.5 73t-10.5 80.5t-36.5 74t-57 52.5t-72 17.5q-45 -3 -74 -37
q-10 -13 -14.5 -43.5t-4.5 -65.5t4 -67.5t11 -48.5q3 -9 22 -23.5t42.5 -29t45 -26t29.5 -13.5z" />
    <glyph glyph-name="q" unicode="q" horiz-adv-x="561" 
d="M269 152q35 -6 71 -3t52 34q13 26 16.5 55t1.5 58.5t-8 59.5t-14 57q-10 37 -32 51t-63 25q-75 19 -117 -8.5t-55 -77t3 -107.5t57 -100q36 -36 88 -44zM376 -185q-15 3 -16 12.5t4.5 21.5t14 25.5t13.5 23.5q11 23 10 51.5t-5.5 57.5t-7.5 56.5t4 48.5q3 2 -10 -5
t-36 -18t-51.5 -23t-57 -20t-52.5 -10t-38 7q-48 32 -84 69.5t-47 92.5q-6 33 -6 61.5t6 55.5t18.5 54.5t32.5 58.5t55 62t76.5 54t84.5 33t79 -1q13 -4 27 -13.5t28.5 -17.5t29 -12.5t28.5 1.5q6 3 13.5 14.5t14.5 23t12 17t6 -4.5q7 -86 6 -172.5t-4 -173.5t-4.5 -174
t4.5 -172q1 -15 9.5 -32t14 -30.5t1.5 -21t-29 -2.5q-38 7 -74 1.5t-71 0.5h1z" />
    <glyph glyph-name="r" unicode="r" horiz-adv-x="465" 
d="M65 29q-12 12 -10 20.5t10 17.5t18 21t14 30q6 28 12 81.5t6 110.5t-9 105t-33 66q-6 5 -14 5.5t-16.5 0.5t-16 0.5t-12.5 6.5q-7 9 -1 17q11 13 30.5 33t42 34.5t45 18t38.5 -16.5q14 -18 31 -42.5t37 -28.5q2 -1 0.5 3.5t-0.5 6.5q29 33 47.5 49t36.5 21t41.5 1
t64.5 -11q11 -2 18.5 3t8.5 -2q3 -18 -6 -46t-25 -57t-36 -52.5t-38 -32.5q-20 -9 -22 -1t1 23.5t3.5 33t-13.5 27.5q-36 24 -54 3.5t-25 -60t-6.5 -83.5t2.5 -66q3 -33 3 -58t2 -47.5t8 -45.5t20 -52q2 -5 3 -13.5t-5 -12.5q-9 -6 -20.5 -3.5t-24.5 7.5t-25.5 10t-23.5 5
q-14 0 -28.5 -8l-29 -16t-27 -11.5t-22.5 5.5z" />
    <glyph glyph-name="s" unicode="s" horiz-adv-x="513" 
d="M170 37q-34 5 -64 17t-56 39q-25 25 -34 55.5t-1.5 56t32.5 39.5t69 5q5 -1 11.5 -4t7.5 -9q2 -14 -6 -23.5t-16 -19.5t-11 -21.5t9 -27.5q24 -33 52 -44.5t57 -9.5t57 14t53 27q27 17 35.5 43.5t4.5 54.5t-18 51.5t-32.5 34t-38 3.5t-34.5 -42q-3 -7 -0.5 -15.5
t5.5 -16.5t4 -14.5t-6 -8.5q-15 -5 -43 0.5t-57 18t-53 29.5t-30 35q-6 16 -14 33.5t-14 35.5t-7.5 37.5t5.5 40.5q26 74 76 106t122 31q14 0 35 -9t44 -17t45.5 -10t40.5 11q20 16 23 6t-2 -29t-13.5 -38t-10.5 -22q-11 -13 -33 -26.5t-35 -12.5q-29 3 -61.5 14.5
t-58.5 32.5q-20 15 -40 23t-37 5t-29.5 -18t-17.5 -46q-5 -27 18.5 -44.5t56 -26t63.5 -8.5t43 8q74 52 133.5 31.5t92.5 -102.5q15 -37 9.5 -73.5t-25.5 -68.5t-50 -58.5t-63 -42.5q-48 -24 -92.5 -31t-100.5 1z" />
    <glyph glyph-name="t" unicode="t" horiz-adv-x="328" 
d="M164 34q-6 -1 -19 7.5t-27 19.5t-25 20.5t-13 11.5q-16 19 -22.5 40.5t-7.5 44.5t1 46.5t2 45.5q0 31 9 61.5t-2 58.5q-3 6 -7.5 3.5t-10 -8t-11.5 -9.5t-12 0q-12 7 -8 21t14 29.5t22 30.5t15 24q6 14 4 38t-4 49t-2 47t9 32q15 17 38.5 26t44.5 16q2 1 2 3.5t2 3.5
q3 1 8.5 2t6.5 -3q2 -12 1 -45.5t-1.5 -69t-0.5 -63.5t3 -28q37 -5 66 0.5t54 34.5q4 4 13.5 3t10.5 -6q3 -36 -17 -49t-47 -19t-53 -12.5t-35 -29.5q-1 -40 -5 -88.5t1.5 -91t27 -71t70.5 -27.5q9 0 19 5.5t19 1.5q5 -3 6 -11.5t-3 -12.5q-12 -13 -28 -26.5t-34.5 -25
t-37.5 -20t-36 -10.5z" />
    <glyph glyph-name="u" unicode="u" horiz-adv-x="637" 
d="M495 22q-12 1 -21.5 15.5t-18 32t-18 34t-21.5 20.5q-27 10 -51.5 -8t-49.5 -40t-50 -38t-53 -1q-22 13 -49.5 32t-44.5 33q-14 12 -26.5 29t-14.5 36q-1 9 0 34t2 58.5t1 70t-2 68.5t-6 55t-12 27q-10 5 -21.5 1t-19.5 2q-13 9 -7 20t19.5 20.5t29.5 17.5t23 11
q24 13 40.5 26.5t29 18.5t22.5 -2.5t21 -35.5q18 -42 16 -89t-7.5 -94.5t-7 -94t16.5 -88.5q9 -21 28 -32t42 -14q9 -1 24 0.5t32 5t33.5 10.5t28.5 18q13 26 16.5 76t0.5 105.5t-10.5 108t-17.5 85.5q-2 7 -3.5 14.5t1.5 14.5q3 5 19 4t35.5 -4t37.5 -6.5t26 -3.5
q2 0 0.5 2t-0.5 3q17 5 30.5 8.5t22 1.5t12 -10.5t0.5 -27.5q-1 -13 -13.5 -22t-13.5 -21q-7 -84 -11 -169t6 -170q2 -17 10.5 -22.5t20.5 -7.5t25 -3t25 -9q4 -3 4 -10.5t-4 -12.5q-11 -11 -27 -26t-33.5 -28t-35 -22t-31.5 -8v1z" />
    <glyph glyph-name="v" unicode="v" horiz-adv-x="538" 
d="M270 35q-36 2 -65 27.5t-57 45.5q-8 6 -19 12t-16 14q-22 35 -27 73.5t-3 79t5.5 82t-2.5 82.5q-3 21 -17 29q-11 8 -23.5 4t-25.5 1q-7 2 -8.5 11.5t2.5 14.5q24 22 56 41t61 35q14 7 25 2t19.5 -16t14.5 -25t10 -24q5 -15 3 -32.5t0 -34.5q0 -1 2 0t2 0q0 -2 -2 -4
t-2 -5q-1 -25 -2.5 -59.5t0.5 -71t8.5 -70.5t20.5 -57.5t37 -33t58 3.5q38 14 65.5 58.5t34.5 95t-13 94.5t-77 57q-45 11 -45.5 29t21 36.5t52.5 34.5t49 22q23 8 44 -9.5t37 -45t25 -59t9 -52.5q0 -25 -7 -50t-15 -49q-1 -4 -8 -17t-8 -15q-14 -21 -42.5 -63.5t-61 -85.5
t-64 -75t-51.5 -31z" />
    <glyph glyph-name="w" unicode="w" horiz-adv-x="848" 
d="M566 24q-34 6 -57.5 20.5t-41.5 33t-33 38.5t-33 38q-5 5 -6 17t0 26t2.5 27.5t1.5 20.5q2 18 4.5 60t-2.5 84.5t-22.5 74t-55.5 28.5q-10 -1 -20 -12t-18 -20q-4 -4 -13 -7.5t-18.5 -6.5t-17 -7t-8.5 -9q-4 -19 -5 -73.5t1.5 -115.5t8.5 -112.5t16 -63.5q4 -5 3.5 -12
t-3.5 -11q-7 -10 -24.5 -10t-40 3t-47.5 4.5t-47 -4.5t-25 2.5t2 23.5t13.5 32t9.5 28q4 37 9.5 82t7.5 91t-2 90t-18 78q-5 11 -11 15.5t-13.5 6.5t-17 3t-20.5 5q-16 6 -14 17.5t15 25t32.5 27t39 24t34 16.5t17.5 4q15 -10 20.5 -29.5t10.5 -39.5t13 -36t26 -18
q32 -5 60 17t54 45.5t53 37.5t58 -7q18 -11 35.5 -27.5t25.5 -37.5q13 -34 16 -71t2 -74.5t-2 -75.5t6 -74q1 -4 15.5 -17.5t33 -28t35.5 -24t21 -4.5q33 37 63 86t40 98t-10.5 90.5t-89.5 63.5q-40 12 -37.5 28.5t23 32t48 28t36.5 17.5q36 21 63 4.5t43.5 -50t23 -74.5
t0.5 -71q-4 -19 -20.5 -54.5t-41 -77.5t-53.5 -85.5t-57.5 -78t-54 -56t-42.5 -19.5z" />
    <glyph glyph-name="x" unicode="x" horiz-adv-x="633" 
d="M485 27q-42 0 -71 22.5t-50.5 55t-37.5 69t-31 64.5q-3 4 -7 0q-9 -14 -23 -38t-29 -49.5t-30 -47.5t-25 -32q-19 -18 -43 -26t-40 -7q-30 1 -49.5 10t-35.5 31q-8 11 4 40t31.5 50.5t39.5 25t29 -36.5q5 -23 18.5 -23t30.5 14.5t35.5 38t33.5 47.5t24.5 43.5t8.5 24.5
q-5 23 -24.5 52.5t-45.5 56.5t-54.5 46.5t-51.5 20.5q-5 0 -13.5 -2t-17.5 -3.5t-16 -1.5t-8 5q-4 17 10 36t35 36.5t44.5 30.5t37.5 16q27 7 54.5 -11t51.5 -45.5t43 -58.5t30 -51q1 -2 3 -2t3 2q12 26 28.5 55.5t37.5 54t47 40t58 14.5q9 0 18.5 -4t18.5 -9q1 0 0 -2t0 -2
q11 -1 25 4.5t24 7t15 -6t-2 -33.5q-8 -32 -22 -49t-33.5 -23t-44.5 -4.5t-56 6.5q-18 3 -34.5 -6.5t-29.5 -25t-21 -34t-10 -33.5q-1 -15 4.5 -28t14 -26l17 -26t12.5 -27q1 -1 2.5 -1t2.5 -1q16 -31 31 -57t34.5 -43.5t46.5 -24.5t67 0q2 1 6.5 1t4.5 -4q2 -15 -11.5 -35
t-34 -38t-43 -30.5t-37.5 -12.5z" />
    <glyph glyph-name="y" unicode="y" horiz-adv-x="591" 
d="M233 -235q-35 26 -31.5 53t19 55.5t31 58.5t3.5 62t-36 47.5t-48.5 28.5t-44.5 30t-24 52q-4 36 -3 73t3 73.5t3 72.5t-3 72q-2 15 -8.5 22t-16.5 9.5t-23.5 3t-28.5 3.5q-18 3 -13.5 12.5t18.5 20t29.5 20.5t18.5 15t11 13t17 15.5t18 13t14 6.5q18 3 35.5 -11.5
t32 -35.5t24.5 -43t12 -34q3 -18 4.5 -43t1.5 -51.5t-1.5 -51t-4.5 -41.5q-2 -10 -2.5 -29t1 -38.5t5.5 -36.5t12 -25q40 -43 64.5 -40t42.5 29.5t34 64.5t40 65t32 58.5t-1 60t-35.5 51t-71.5 32.5q-16 3 -6.5 13.5t28 21.5t37.5 20.5t22 11.5q20 13 39.5 28.5t42.5 10.5
q14 -3 25 -17t18 -33t10 -38.5t1 -32.5q-8 -68 -38.5 -124.5t-69.5 -109l-78 -105t-64 -112.5q-10 -24 -25 -45t-20 -39.5t6.5 -35.5t53.5 -35q22 -10 19 -19.5t-17.5 -18.5t-32.5 -18.5t-26 -19.5q-12 -14 -26.5 -20t-28.5 4z" />
    <glyph glyph-name="z" unicode="z" horiz-adv-x="522" 
d="M118 -247q-19 18 -7.5 45t37.5 60.5t60 70.5t61 75t39.5 74t-4.5 66q-25 45 -59.5 55.5t-97.5 -21.5q-6 -3 -14.5 -2t-9.5 6q-6 18 5 41t31 47.5t45 48t46 43t34.5 32t11.5 14.5q-7 6 -23 12.5t-34.5 13t-36 13t-27.5 11.5q-14 7 -29.5 12t-30.5 4.5t-29 -9.5t-25 -31
q-6 -13 -25.5 -13.5t-22.5 13.5q-6 24 2.5 47.5t25 43.5t39 36.5t43.5 25.5q34 15 66.5 10.5t65.5 -16t66 -23.5t69 -12q14 0 28.5 7.5t29 16t28.5 13.5t27 -1q7 -3 8 -9t-0.5 -12t-4.5 -10.5l-3 -4.5q-1 -1 -14.5 -15.5t-31 -32.5t-34.5 -34.5t-24 -22.5q-5 -5 -17 -17.5
t-17 -17.5q-2 -2 -11.5 -11t-20 -20.5t-17.5 -21.5t-3 -14q25 -25 44.5 -35.5t34.5 -20t27 -25.5t22 -52q15 -56 7 -96t-30 -71t-55 -56t-67 -49.5t-65 -52t-51 -64.5q-9 -18 -15.5 -34.5t-12.5 -27t-13.5 -12.5t-20.5 10z" />
    <glyph glyph-name="quoteleft" unicode="&#x2018;" 
d="M48 750q-17 1 -26.5 28.5t-11 61t6 63.5t25.5 36q40 14 58 6t21.5 -29t-4.5 -49t-20.5 -54t-26.5 -44t-22 -19z" />
    <glyph glyph-name="quoteright" unicode="&#x2019;" 
d="M48 750q-17 1 -26.5 28.5t-11 61t6 63.5t25.5 36q40 14 58 6t21.5 -29t-4.5 -49t-20.5 -54t-26.5 -44t-22 -19z" />
    <glyph glyph-name="quotedblleft" unicode="&#x201c;" horiz-adv-x="263" 
d="M48 750q-17 1 -26.5 28.5t-11 61t6 63.5t25.5 36q40 14 58 6t21.5 -29t-4.5 -49t-20.5 -54t-26.5 -44t-22 -19zM178 752q-17 1 -26.5 28.5t-11 61t6 63.5t25.5 36q40 14 58 6t21.5 -29t-4.5 -49t-20.5 -54t-26.5 -44t-22 -19z" />
    <glyph glyph-name="quotedblright" unicode="&#x201d;" horiz-adv-x="263" 
d="M48 750q-17 1 -26.5 28.5t-11 61t6 63.5t25.5 36q40 14 58 6t21.5 -29t-4.5 -49t-20.5 -54t-26.5 -44t-22 -19zM178 752q-17 1 -26.5 28.5t-11 61t6 63.5t25.5 36q40 14 58 6t21.5 -29t-4.5 -49t-20.5 -54t-26.5 -44t-22 -19z" />
    </font>
</defs>
</svg>
